mtllib LFS-01_Albion_Nova_v2.mtl
v -860.0000 -109.0000 -32.0000
v -860.0000 -75.0000 -32.0000
v -860.0000 -109.0000 32.0000
v -860.0000 -75.0000 32.0000
v -250.0000 -151.0000 -32.0000
v -250.0000 -33.0000 -32.0000
v -250.0000 -151.0000 32.0000
v -250.0000 -33.0000 32.0000
v -860.0000 75.0000 -32.0000
v -860.0000 109.0000 -32.0000
v -860.0000 75.0000 32.0000
v -860.0000 109.0000 32.0000
v -250.0000 33.0000 -32.0000
v -250.0000 151.0000 -32.0000
v -250.0000 33.0000 32.0000
v -250.0000 151.0000 32.0000
v -820.0000 -107.0000 -60.0000
v -820.0000 -83.0000 -60.0000
v -820.0000 -107.0000 -36.0000
v -820.0000 -83.0000 -36.0000
v -285.0000 -139.0000 -60.0000
v -285.0000 -51.0000 -60.0000
v -285.0000 -139.0000 -36.0000
v -285.0000 -51.0000 -36.0000
v -820.0000 83.0000 -60.0000
v -820.0000 107.0000 -60.0000
v -820.0000 83.0000 -36.0000
v -820.0000 107.0000 -36.0000
v -285.0000 51.0000 -60.0000
v -285.0000 139.0000 -60.0000
v -285.0000 51.0000 -36.0000
v -285.0000 139.0000 -36.0000
v -365.0000 -92.5000 -66.0000
v -365.0000 92.5000 -66.0000
v -365.0000 -92.5000 58.0000
v -365.0000 92.5000 58.0000
v 60.0000 -150.0000 -66.0000
v 60.0000 150.0000 -66.0000
v 60.0000 -150.0000 58.0000
v 60.0000 150.0000 58.0000
v 22.5000 -160.0000 -79.0000
v 347.5000 -160.0000 -79.0000
v 347.5000 160.0000 -79.0000
v 22.5000 160.0000 -79.0000
v 22.5000 -160.0000 71.0000
v 347.5000 -160.0000 71.0000
v 347.5000 160.0000 71.0000
v 22.5000 160.0000 71.0000
v 290.0000 -145.0000 -84.0000
v 290.0000 145.0000 -84.0000
v 290.0000 -145.0000 88.0000
v 290.0000 145.0000 88.0000
v 500.0000 -180.0000 -84.0000
v 500.0000 180.0000 -84.0000
v 500.0000 -180.0000 88.0000
v 500.0000 180.0000 88.0000
v -195.0000 -87.5000 56.0000
v 55.0000 -87.5000 56.0000
v 55.0000 87.5000 56.0000
v -195.0000 87.5000 56.0000
v -195.0000 -87.5000 84.0000
v 55.0000 -87.5000 84.0000
v 55.0000 87.5000 84.0000
v -195.0000 87.5000 84.0000
v 55.0000 -95.0000 63.0000
v 285.0000 -95.0000 63.0000
v 285.0000 95.0000 63.0000
v 55.0000 95.0000 63.0000
v 55.0000 -95.0000 93.0000
v 285.0000 -95.0000 93.0000
v 285.0000 95.0000 93.0000
v 55.0000 95.0000 93.0000
v -90.0000 -46.0000 -118.0000
v 330.0000 -46.0000 -118.0000
v 330.0000 46.0000 -118.0000
v -90.0000 46.0000 -118.0000
v -90.0000 -46.0000 -86.0000
v 330.0000 -46.0000 -86.0000
v 330.0000 46.0000 -86.0000
v -90.0000 46.0000 -86.0000
v -170.0000 -207.0000 -39.0000
v 90.0000 -207.0000 -39.0000
v 90.0000 -153.0000 -39.0000
v -170.0000 -153.0000 -39.0000
v -170.0000 -207.0000 39.0000
v 90.0000 -207.0000 39.0000
v 90.0000 -153.0000 39.0000
v -170.0000 -153.0000 39.0000
v 90.0000 -227.0000 -46.0000
v 350.0000 -227.0000 -46.0000
v 350.0000 -163.0000 -46.0000
v 90.0000 -163.0000 -46.0000
v 90.0000 -227.0000 42.0000
v 350.0000 -227.0000 42.0000
v 350.0000 -163.0000 42.0000
v 90.0000 -163.0000 42.0000
v 35.0000 -242.0000 -18.0000
v 285.0000 -242.0000 -18.0000
v 285.0000 -218.0000 -18.0000
v 35.0000 -218.0000 -18.0000
v 35.0000 -242.0000 34.0000
v 285.0000 -242.0000 34.0000
v 285.0000 -218.0000 34.0000
v 35.0000 -218.0000 34.0000
v -170.0000 153.0000 -39.0000
v 90.0000 153.0000 -39.0000
v 90.0000 207.0000 -39.0000
v -170.0000 207.0000 -39.0000
v -170.0000 153.0000 39.0000
v 90.0000 153.0000 39.0000
v 90.0000 207.0000 39.0000
v -170.0000 207.0000 39.0000
v 90.0000 163.0000 -46.0000
v 350.0000 163.0000 -46.0000
v 350.0000 227.0000 -46.0000
v 90.0000 227.0000 -46.0000
v 90.0000 163.0000 42.0000
v 350.0000 163.0000 42.0000
v 350.0000 227.0000 42.0000
v 90.0000 227.0000 42.0000
v 35.0000 218.0000 -18.0000
v 285.0000 218.0000 -18.0000
v 285.0000 242.0000 -18.0000
v 35.0000 242.0000 -18.0000
v 35.0000 218.0000 34.0000
v 285.0000 218.0000 34.0000
v 285.0000 242.0000 34.0000
v 35.0000 242.0000 34.0000
v -15.0000 -65.0000 79.0000
v 175.0000 -65.0000 79.0000
v 175.0000 65.0000 79.0000
v -15.0000 65.0000 79.0000
v -15.0000 -65.0000 121.0000
v 175.0000 -65.0000 121.0000
v 175.0000 65.0000 121.0000
v -15.0000 65.0000 121.0000
v 75.0000 -48.0000 116.0000
v 205.0000 -48.0000 116.0000
v 205.0000 48.0000 116.0000
v 75.0000 48.0000 116.0000
v 75.0000 -48.0000 154.0000
v 205.0000 -48.0000 154.0000
v 205.0000 48.0000 154.0000
v 75.0000 48.0000 154.0000
v 139.0000 -34.0000 150.0000
v 221.0000 -34.0000 150.0000
v 221.0000 34.0000 150.0000
v 139.0000 34.0000 150.0000
v 139.0000 -34.0000 196.0000
v 221.0000 -34.0000 196.0000
v 221.0000 34.0000 196.0000
v 139.0000 34.0000 196.0000
v 182.0000 -25.0000 195.0000
v 230.0000 -25.0000 195.0000
v 230.0000 25.0000 195.0000
v 182.0000 25.0000 195.0000
v 182.0000 -25.0000 225.0000
v 230.0000 -25.0000 225.0000
v 230.0000 25.0000 225.0000
v 182.0000 25.0000 225.0000
v 222.0000 0.0000 215.0000
v 221.0622 3.5000 215.0000
v 218.5000 6.0622 215.0000
v 215.0000 7.0000 215.0000
v 211.5000 6.0622 215.0000
v 208.9378 3.5000 215.0000
v 208.0000 0.0000 215.0000
v 208.9378 -3.5000 215.0000
v 211.5000 -6.0622 215.0000
v 215.0000 -7.0000 215.0000
v 218.5000 -6.0622 215.0000
v 221.0622 -3.5000 215.0000
v 222.0000 0.0000 305.0000
v 221.0622 3.5000 305.0000
v 218.5000 6.0622 305.0000
v 215.0000 7.0000 305.0000
v 211.5000 6.0622 305.0000
v 208.9378 3.5000 305.0000
v 208.0000 0.0000 305.0000
v 208.9378 -3.5000 305.0000
v 211.5000 -6.0622 305.0000
v 215.0000 -7.0000 305.0000
v 218.5000 -6.0622 305.0000
v 221.0622 -3.5000 305.0000
v 206.0000 -36.0000 301.0000
v 224.0000 -36.0000 301.0000
v 224.0000 36.0000 301.0000
v 206.0000 36.0000 301.0000
v 206.0000 -36.0000 311.0000
v 224.0000 -36.0000 311.0000
v 224.0000 36.0000 311.0000
v 206.0000 36.0000 311.0000
v 390.0000 -74.0000 18.0000
v 390.0000 -76.3493 32.8328
v 390.0000 -83.1672 46.2137
v 390.0000 -93.7863 56.8328
v 390.0000 -107.1672 63.6507
v 390.0000 -122.0000 66.0000
v 390.0000 -136.8328 63.6507
v 390.0000 -150.2137 56.8328
v 390.0000 -160.8328 46.2137
v 390.0000 -167.6507 32.8328
v 390.0000 -170.0000 18.0000
v 390.0000 -167.6507 3.1672
v 390.0000 -160.8328 -10.2137
v 390.0000 -150.2137 -20.8328
v 390.0000 -136.8328 -27.6507
v 390.0000 -122.0000 -30.0000
v 390.0000 -107.1672 -27.6507
v 390.0000 -93.7863 -20.8328
v 390.0000 -83.1672 -10.2137
v 390.0000 -76.3493 3.1672
v 620.0000 -74.0000 18.0000
v 620.0000 -76.3493 32.8328
v 620.0000 -83.1672 46.2137
v 620.0000 -93.7863 56.8328
v 620.0000 -107.1672 63.6507
v 620.0000 -122.0000 66.0000
v 620.0000 -136.8328 63.6507
v 620.0000 -150.2137 56.8328
v 620.0000 -160.8328 46.2137
v 620.0000 -167.6507 32.8328
v 620.0000 -170.0000 18.0000
v 620.0000 -167.6507 3.1672
v 620.0000 -160.8328 -10.2137
v 620.0000 -150.2137 -20.8328
v 620.0000 -136.8328 -27.6507
v 620.0000 -122.0000 -30.0000
v 620.0000 -107.1672 -27.6507
v 620.0000 -93.7863 -20.8328
v 620.0000 -83.1672 -10.2137
v 620.0000 -76.3493 3.1672
v 604.0000 -82.6400 18.0000
v 604.0000 -84.5664 30.1629
v 604.0000 -90.1571 41.1352
v 604.0000 -98.8648 49.8429
v 604.0000 -109.8371 55.4336
v 604.0000 -122.0000 57.3600
v 604.0000 -134.1629 55.4336
v 604.0000 -145.1352 49.8429
v 604.0000 -153.8429 41.1352
v 604.0000 -159.4336 30.1629
v 604.0000 -161.3600 18.0000
v 604.0000 -159.4336 5.8371
v 604.0000 -153.8429 -5.1352
v 604.0000 -145.1352 -13.8429
v 604.0000 -134.1629 -19.4336
v 604.0000 -122.0000 -21.3600
v 604.0000 -109.8371 -19.4336
v 604.0000 -98.8648 -13.8429
v 604.0000 -90.1571 -5.1352
v 604.0000 -84.5664 5.8371
v 646.0000 -82.6400 18.0000
v 646.0000 -84.5664 30.1629
v 646.0000 -90.1571 41.1352
v 646.0000 -98.8648 49.8429
v 646.0000 -109.8371 55.4336
v 646.0000 -122.0000 57.3600
v 646.0000 -134.1629 55.4336
v 646.0000 -145.1352 49.8429
v 646.0000 -153.8429 41.1352
v 646.0000 -159.4336 30.1629
v 646.0000 -161.3600 18.0000
v 646.0000 -159.4336 5.8371
v 646.0000 -153.8429 -5.1352
v 646.0000 -145.1352 -13.8429
v 646.0000 -134.1629 -19.4336
v 646.0000 -122.0000 -21.3600
v 646.0000 -109.8371 -19.4336
v 646.0000 -98.8648 -13.8429
v 646.0000 -90.1571 -5.1352
v 646.0000 -84.5664 5.8371
v 390.0000 170.0000 18.0000
v 390.0000 167.6507 32.8328
v 390.0000 160.8328 46.2137
v 390.0000 150.2137 56.8328
v 390.0000 136.8328 63.6507
v 390.0000 122.0000 66.0000
v 390.0000 107.1672 63.6507
v 390.0000 93.7863 56.8328
v 390.0000 83.1672 46.2137
v 390.0000 76.3493 32.8328
v 390.0000 74.0000 18.0000
v 390.0000 76.3493 3.1672
v 390.0000 83.1672 -10.2137
v 390.0000 93.7863 -20.8328
v 390.0000 107.1672 -27.6507
v 390.0000 122.0000 -30.0000
v 390.0000 136.8328 -27.6507
v 390.0000 150.2137 -20.8328
v 390.0000 160.8328 -10.2137
v 390.0000 167.6507 3.1672
v 620.0000 170.0000 18.0000
v 620.0000 167.6507 32.8328
v 620.0000 160.8328 46.2137
v 620.0000 150.2137 56.8328
v 620.0000 136.8328 63.6507
v 620.0000 122.0000 66.0000
v 620.0000 107.1672 63.6507
v 620.0000 93.7863 56.8328
v 620.0000 83.1672 46.2137
v 620.0000 76.3493 32.8328
v 620.0000 74.0000 18.0000
v 620.0000 76.3493 3.1672
v 620.0000 83.1672 -10.2137
v 620.0000 93.7863 -20.8328
v 620.0000 107.1672 -27.6507
v 620.0000 122.0000 -30.0000
v 620.0000 136.8328 -27.6507
v 620.0000 150.2137 -20.8328
v 620.0000 160.8328 -10.2137
v 620.0000 167.6507 3.1672
v 604.0000 161.3600 18.0000
v 604.0000 159.4336 30.1629
v 604.0000 153.8429 41.1352
v 604.0000 145.1352 49.8429
v 604.0000 134.1629 55.4336
v 604.0000 122.0000 57.3600
v 604.0000 109.8371 55.4336
v 604.0000 98.8648 49.8429
v 604.0000 90.1571 41.1352
v 604.0000 84.5664 30.1629
v 604.0000 82.6400 18.0000
v 604.0000 84.5664 5.8371
v 604.0000 90.1571 -5.1352
v 604.0000 98.8648 -13.8429
v 604.0000 109.8371 -19.4336
v 604.0000 122.0000 -21.3600
v 604.0000 134.1629 -19.4336
v 604.0000 145.1352 -13.8429
v 604.0000 153.8429 -5.1352
v 604.0000 159.4336 5.8371
v 646.0000 161.3600 18.0000
v 646.0000 159.4336 30.1629
v 646.0000 153.8429 41.1352
v 646.0000 145.1352 49.8429
v 646.0000 134.1629 55.4336
v 646.0000 122.0000 57.3600
v 646.0000 109.8371 55.4336
v 646.0000 98.8648 49.8429
v 646.0000 90.1571 41.1352
v 646.0000 84.5664 30.1629
v 646.0000 82.6400 18.0000
v 646.0000 84.5664 5.8371
v 646.0000 90.1571 -5.1352
v 646.0000 98.8648 -13.8429
v 646.0000 109.8371 -19.4336
v 646.0000 122.0000 -21.3600
v 646.0000 134.1629 -19.4336
v 646.0000 145.1352 -13.8429
v 646.0000 153.8429 -5.1352
v 646.0000 159.4336 5.8371
v 390.0000 -53.0000 -73.0000
v 390.0000 -54.9088 -60.9483
v 390.0000 -60.4483 -50.0764
v 390.0000 -69.0764 -41.4483
v 390.0000 -79.9483 -35.9088
v 390.0000 -92.0000 -34.0000
v 390.0000 -104.0517 -35.9088
v 390.0000 -114.9236 -41.4483
v 390.0000 -123.5517 -50.0764
v 390.0000 -129.0912 -60.9483
v 390.0000 -131.0000 -73.0000
v 390.0000 -129.0912 -85.0517
v 390.0000 -123.5517 -95.9236
v 390.0000 -114.9236 -104.5517
v 390.0000 -104.0517 -110.0912
v 390.0000 -92.0000 -112.0000
v 390.0000 -79.9483 -110.0912
v 390.0000 -69.0764 -104.5517
v 390.0000 -60.4483 -95.9236
v 390.0000 -54.9088 -85.0517
v 620.0000 -53.0000 -73.0000
v 620.0000 -54.9088 -60.9483
v 620.0000 -60.4483 -50.0764
v 620.0000 -69.0764 -41.4483
v 620.0000 -79.9483 -35.9088
v 620.0000 -92.0000 -34.0000
v 620.0000 -104.0517 -35.9088
v 620.0000 -114.9236 -41.4483
v 620.0000 -123.5517 -50.0764
v 620.0000 -129.0912 -60.9483
v 620.0000 -131.0000 -73.0000
v 620.0000 -129.0912 -85.0517
v 620.0000 -123.5517 -95.9236
v 620.0000 -114.9236 -104.5517
v 620.0000 -104.0517 -110.0912
v 620.0000 -92.0000 -112.0000
v 620.0000 -79.9483 -110.0912
v 620.0000 -69.0764 -104.5517
v 620.0000 -60.4483 -95.9236
v 620.0000 -54.9088 -85.0517
v 604.0000 -60.0200 -73.0000
v 604.0000 -61.5852 -63.1176
v 604.0000 -66.1276 -54.2026
v 604.0000 -73.2026 -47.1276
v 604.0000 -82.1176 -42.5852
v 604.0000 -92.0000 -41.0200
v 604.0000 -101.8824 -42.5852
v 604.0000 -110.7974 -47.1276
v 604.0000 -117.8724 -54.2026
v 604.0000 -122.4148 -63.1176
v 604.0000 -123.9800 -73.0000
v 604.0000 -122.4148 -82.8824
v 604.0000 -117.8724 -91.7974
v 604.0000 -110.7974 -98.8724
v 604.0000 -101.8824 -103.4148
v 604.0000 -92.0000 -104.9800
v 604.0000 -82.1176 -103.4148
v 604.0000 -73.2026 -98.8724
v 604.0000 -66.1276 -91.7974
v 604.0000 -61.5852 -82.8824
v 646.0000 -60.0200 -73.0000
v 646.0000 -61.5852 -63.1176
v 646.0000 -66.1276 -54.2026
v 646.0000 -73.2026 -47.1276
v 646.0000 -82.1176 -42.5852
v 646.0000 -92.0000 -41.0200
v 646.0000 -101.8824 -42.5852
v 646.0000 -110.7974 -47.1276
v 646.0000 -117.8724 -54.2026
v 646.0000 -122.4148 -63.1176
v 646.0000 -123.9800 -73.0000
v 646.0000 -122.4148 -82.8824
v 646.0000 -117.8724 -91.7974
v 646.0000 -110.7974 -98.8724
v 646.0000 -101.8824 -103.4148
v 646.0000 -92.0000 -104.9800
v 646.0000 -82.1176 -103.4148
v 646.0000 -73.2026 -98.8724
v 646.0000 -66.1276 -91.7974
v 646.0000 -61.5852 -82.8824
v 390.0000 131.0000 -73.0000
v 390.0000 129.0912 -60.9483
v 390.0000 123.5517 -50.0764
v 390.0000 114.9236 -41.4483
v 390.0000 104.0517 -35.9088
v 390.0000 92.0000 -34.0000
v 390.0000 79.9483 -35.9088
v 390.0000 69.0764 -41.4483
v 390.0000 60.4483 -50.0764
v 390.0000 54.9088 -60.9483
v 390.0000 53.0000 -73.0000
v 390.0000 54.9088 -85.0517
v 390.0000 60.4483 -95.9236
v 390.0000 69.0764 -104.5517
v 390.0000 79.9483 -110.0912
v 390.0000 92.0000 -112.0000
v 390.0000 104.0517 -110.0912
v 390.0000 114.9236 -104.5517
v 390.0000 123.5517 -95.9236
v 390.0000 129.0912 -85.0517
v 620.0000 131.0000 -73.0000
v 620.0000 129.0912 -60.9483
v 620.0000 123.5517 -50.0764
v 620.0000 114.9236 -41.4483
v 620.0000 104.0517 -35.9088
v 620.0000 92.0000 -34.0000
v 620.0000 79.9483 -35.9088
v 620.0000 69.0764 -41.4483
v 620.0000 60.4483 -50.0764
v 620.0000 54.9088 -60.9483
v 620.0000 53.0000 -73.0000
v 620.0000 54.9088 -85.0517
v 620.0000 60.4483 -95.9236
v 620.0000 69.0764 -104.5517
v 620.0000 79.9483 -110.0912
v 620.0000 92.0000 -112.0000
v 620.0000 104.0517 -110.0912
v 620.0000 114.9236 -104.5517
v 620.0000 123.5517 -95.9236
v 620.0000 129.0912 -85.0517
v 604.0000 123.9800 -73.0000
v 604.0000 122.4148 -63.1176
v 604.0000 117.8724 -54.2026
v 604.0000 110.7974 -47.1276
v 604.0000 101.8824 -42.5852
v 604.0000 92.0000 -41.0200
v 604.0000 82.1176 -42.5852
v 604.0000 73.2026 -47.1276
v 604.0000 66.1276 -54.2026
v 604.0000 61.5852 -63.1176
v 604.0000 60.0200 -73.0000
v 604.0000 61.5852 -82.8824
v 604.0000 66.1276 -91.7974
v 604.0000 73.2026 -98.8724
v 604.0000 82.1176 -103.4148
v 604.0000 92.0000 -104.9800
v 604.0000 101.8824 -103.4148
v 604.0000 110.7974 -98.8724
v 604.0000 117.8724 -91.7974
v 604.0000 122.4148 -82.8824
v 646.0000 123.9800 -73.0000
v 646.0000 122.4148 -63.1176
v 646.0000 117.8724 -54.2026
v 646.0000 110.7974 -47.1276
v 646.0000 101.8824 -42.5852
v 646.0000 92.0000 -41.0200
v 646.0000 82.1176 -42.5852
v 646.0000 73.2026 -47.1276
v 646.0000 66.1276 -54.2026
v 646.0000 61.5852 -63.1176
v 646.0000 60.0200 -73.0000
v 646.0000 61.5852 -82.8824
v 646.0000 66.1276 -91.7974
v 646.0000 73.2026 -98.8724
v 646.0000 82.1176 -103.4148
v 646.0000 92.0000 -104.9800
v 646.0000 101.8824 -103.4148
v 646.0000 110.7974 -98.8724
v 646.0000 117.8724 -91.7974
v 646.0000 122.4148 -82.8824
v 420.0000 34.0000 -20.0000
v 420.0000 31.9495 -8.3713
v 420.0000 26.0455 1.8548
v 420.0000 17.0000 9.4449
v 420.0000 5.9040 13.4835
v 420.0000 -5.9040 13.4835
v 420.0000 -17.0000 9.4449
v 420.0000 -26.0455 1.8548
v 420.0000 -31.9495 -8.3713
v 420.0000 -34.0000 -20.0000
v 420.0000 -31.9495 -31.6287
v 420.0000 -26.0455 -41.8548
v 420.0000 -17.0000 -49.4449
v 420.0000 -5.9040 -53.4835
v 420.0000 5.9040 -53.4835
v 420.0000 17.0000 -49.4449
v 420.0000 26.0455 -41.8548
v 420.0000 31.9495 -31.6287
v 620.0000 34.0000 -20.0000
v 620.0000 31.9495 -8.3713
v 620.0000 26.0455 1.8548
v 620.0000 17.0000 9.4449
v 620.0000 5.9040 13.4835
v 620.0000 -5.9040 13.4835
v 620.0000 -17.0000 9.4449
v 620.0000 -26.0455 1.8548
v 620.0000 -31.9495 -8.3713
v 620.0000 -34.0000 -20.0000
v 620.0000 -31.9495 -31.6287
v 620.0000 -26.0455 -41.8548
v 620.0000 -17.0000 -49.4449
v 620.0000 -5.9040 -53.4835
v 620.0000 5.9040 -53.4835
v 620.0000 17.0000 -49.4449
v 620.0000 26.0455 -41.8548
v 620.0000 31.9495 -31.6287
v 607.0000 27.0000 -20.0000
v 607.0000 25.3717 -10.7655
v 607.0000 20.6832 -2.6447
v 607.0000 13.5000 3.3827
v 607.0000 4.6885 6.5898
v 607.0000 -4.6885 6.5898
v 607.0000 -13.5000 3.3827
v 607.0000 -20.6832 -2.6447
v 607.0000 -25.3717 -10.7655
v 607.0000 -27.0000 -20.0000
v 607.0000 -25.3717 -29.2345
v 607.0000 -20.6832 -37.3553
v 607.0000 -13.5000 -43.3827
v 607.0000 -4.6885 -46.5898
v 607.0000 4.6885 -46.5898
v 607.0000 13.5000 -43.3827
v 607.0000 20.6832 -37.3553
v 607.0000 25.3717 -29.2345
v 643.0000 27.0000 -20.0000
v 643.0000 25.3717 -10.7655
v 643.0000 20.6832 -2.6447
v 643.0000 13.5000 3.3827
v 643.0000 4.6885 6.5898
v 643.0000 -4.6885 6.5898
v 643.0000 -13.5000 3.3827
v 643.0000 -20.6832 -2.6447
v 643.0000 -25.3717 -10.7655
v 643.0000 -27.0000 -20.0000
v 643.0000 -25.3717 -29.2345
v 643.0000 -20.6832 -37.3553
v 643.0000 -13.5000 -43.3827
v 643.0000 -4.6885 -46.5898
v 643.0000 4.6885 -46.5898
v 643.0000 13.5000 -43.3827
v 643.0000 20.6832 -37.3553
v 643.0000 25.3717 -29.2345
v -286.0000 -37.0000 87.0000
v -224.0000 -37.0000 87.0000
v -224.0000 37.0000 87.0000
v -286.0000 37.0000 87.0000
v -286.0000 -37.0000 109.0000
v -224.0000 -37.0000 109.0000
v -224.0000 37.0000 109.0000
v -286.0000 37.0000 109.0000
v -283.0000 -27.0000 107.0000
v -237.0000 -27.0000 107.0000
v -237.0000 27.0000 107.0000
v -283.0000 27.0000 107.0000
v -283.0000 -27.0000 125.0000
v -237.0000 -27.0000 125.0000
v -237.0000 27.0000 125.0000
v -283.0000 27.0000 125.0000
v -352.0000 -7.8000 122.0000
v -352.0000 -8.4111 123.8809
v -352.0000 -10.0111 125.0434
v -352.0000 -11.9889 125.0434
v -352.0000 -13.5889 123.8809
v -352.0000 -14.2000 122.0000
v -352.0000 -13.5889 120.1191
v -352.0000 -11.9889 118.9566
v -352.0000 -10.0111 118.9566
v -352.0000 -8.4111 120.1191
v -262.0000 -7.8000 122.0000
v -262.0000 -8.4111 123.8809
v -262.0000 -10.0111 125.0434
v -262.0000 -11.9889 125.0434
v -262.0000 -13.5889 123.8809
v -262.0000 -14.2000 122.0000
v -262.0000 -13.5889 120.1191
v -262.0000 -11.9889 118.9566
v -262.0000 -10.0111 118.9566
v -262.0000 -8.4111 120.1191
v -352.0000 14.2000 122.0000
v -352.0000 13.5889 123.8809
v -352.0000 11.9889 125.0434
v -352.0000 10.0111 125.0434
v -352.0000 8.4111 123.8809
v -352.0000 7.8000 122.0000
v -352.0000 8.4111 120.1191
v -352.0000 10.0111 118.9566
v -352.0000 11.9889 118.9566
v -352.0000 13.5889 120.1191
v -262.0000 14.2000 122.0000
v -262.0000 13.5889 123.8809
v -262.0000 11.9889 125.0434
v -262.0000 10.0111 125.0434
v -262.0000 8.4111 123.8809
v -262.0000 7.8000 122.0000
v -262.0000 8.4111 120.1191
v -262.0000 10.0111 118.9566
v -262.0000 11.9889 118.9566
v -262.0000 13.5889 120.1191
v -121.0000 -37.0000 87.0000
v -59.0000 -37.0000 87.0000
v -59.0000 37.0000 87.0000
v -121.0000 37.0000 87.0000
v -121.0000 -37.0000 109.0000
v -59.0000 -37.0000 109.0000
v -59.0000 37.0000 109.0000
v -121.0000 37.0000 109.0000
v -118.0000 -27.0000 107.0000
v -72.0000 -27.0000 107.0000
v -72.0000 27.0000 107.0000
v -118.0000 27.0000 107.0000
v -118.0000 -27.0000 125.0000
v -72.0000 -27.0000 125.0000
v -72.0000 27.0000 125.0000
v -118.0000 27.0000 125.0000
v -187.0000 -7.8000 122.0000
v -187.0000 -8.4111 123.8809
v -187.0000 -10.0111 125.0434
v -187.0000 -11.9889 125.0434
v -187.0000 -13.5889 123.8809
v -187.0000 -14.2000 122.0000
v -187.0000 -13.5889 120.1191
v -187.0000 -11.9889 118.9566
v -187.0000 -10.0111 118.9566
v -187.0000 -8.4111 120.1191
v -97.0000 -7.8000 122.0000
v -97.0000 -8.4111 123.8809
v -97.0000 -10.0111 125.0434
v -97.0000 -11.9889 125.0434
v -97.0000 -13.5889 123.8809
v -97.0000 -14.2000 122.0000
v -97.0000 -13.5889 120.1191
v -97.0000 -11.9889 118.9566
v -97.0000 -10.0111 118.9566
v -97.0000 -8.4111 120.1191
v -187.0000 14.2000 122.0000
v -187.0000 13.5889 123.8809
v -187.0000 11.9889 125.0434
v -187.0000 10.0111 125.0434
v -187.0000 8.4111 123.8809
v -187.0000 7.8000 122.0000
v -187.0000 8.4111 120.1191
v -187.0000 10.0111 118.9566
v -187.0000 11.9889 118.9566
v -187.0000 13.5889 120.1191
v -97.0000 14.2000 122.0000
v -97.0000 13.5889 123.8809
v -97.0000 11.9889 125.0434
v -97.0000 10.0111 125.0434
v -97.0000 8.4111 123.8809
v -97.0000 7.8000 122.0000
v -97.0000 8.4111 120.1191
v -97.0000 10.0111 118.9566
v -97.0000 11.9889 118.9566
v -97.0000 13.5889 120.1191
v 39.0000 -37.0000 87.0000
v 101.0000 -37.0000 87.0000
v 101.0000 37.0000 87.0000
v 39.0000 37.0000 87.0000
v 39.0000 -37.0000 109.0000
v 101.0000 -37.0000 109.0000
v 101.0000 37.0000 109.0000
v 39.0000 37.0000 109.0000
v 42.0000 -27.0000 107.0000
v 88.0000 -27.0000 107.0000
v 88.0000 27.0000 107.0000
v 42.0000 27.0000 107.0000
v 42.0000 -27.0000 125.0000
v 88.0000 -27.0000 125.0000
v 88.0000 27.0000 125.0000
v 42.0000 27.0000 125.0000
v -27.0000 -7.8000 122.0000
v -27.0000 -8.4111 123.8809
v -27.0000 -10.0111 125.0434
v -27.0000 -11.9889 125.0434
v -27.0000 -13.5889 123.8809
v -27.0000 -14.2000 122.0000
v -27.0000 -13.5889 120.1191
v -27.0000 -11.9889 118.9566
v -27.0000 -10.0111 118.9566
v -27.0000 -8.4111 120.1191
v 63.0000 -7.8000 122.0000
v 63.0000 -8.4111 123.8809
v 63.0000 -10.0111 125.0434
v 63.0000 -11.9889 125.0434
v 63.0000 -13.5889 123.8809
v 63.0000 -14.2000 122.0000
v 63.0000 -13.5889 120.1191
v 63.0000 -11.9889 118.9566
v 63.0000 -10.0111 118.9566
v 63.0000 -8.4111 120.1191
v -27.0000 14.2000 122.0000
v -27.0000 13.5889 123.8809
v -27.0000 11.9889 125.0434
v -27.0000 10.0111 125.0434
v -27.0000 8.4111 123.8809
v -27.0000 7.8000 122.0000
v -27.0000 8.4111 120.1191
v -27.0000 10.0111 118.9566
v -27.0000 11.9889 118.9566
v -27.0000 13.5889 120.1191
v 63.0000 14.2000 122.0000
v 63.0000 13.5889 123.8809
v 63.0000 11.9889 125.0434
v 63.0000 10.0111 125.0434
v 63.0000 8.4111 123.8809
v 63.0000 7.8000 122.0000
v 63.0000 8.4111 120.1191
v 63.0000 10.0111 118.9566
v 63.0000 11.9889 118.9566
v 63.0000 13.5889 120.1191
v -102.9800 -207.4600 39.6200
v -67.0200 -207.4600 39.6200
v -67.0200 -164.5400 39.6200
v -102.9800 -164.5400 39.6200
v -102.9800 -207.4600 52.3800
v -67.0200 -207.4600 52.3800
v -67.0200 -164.5400 52.3800
v -102.9800 -164.5400 52.3800
v -101.2400 -201.6600 51.2200
v -74.5600 -201.6600 51.2200
v -74.5600 -170.3400 51.2200
v -101.2400 -170.3400 51.2200
v -101.2400 -201.6600 61.6600
v -74.5600 -201.6600 61.6600
v -74.5600 -170.3400 61.6600
v -101.2400 -170.3400 61.6600
v -83.1440 -181.9400 59.9200
v -83.4985 -181.9400 61.0109
v -84.4265 -181.9400 61.6852
v -85.5735 -181.9400 61.6852
v -86.5015 -181.9400 61.0109
v -86.8560 -181.9400 59.9200
v -86.5015 -181.9400 58.8291
v -85.5735 -181.9400 58.1548
v -84.4265 -181.9400 58.1548
v -83.4985 -181.9400 58.8291
v -83.1440 -129.7400 59.9200
v -83.4985 -129.7400 61.0109
v -84.4265 -129.7400 61.6852
v -85.5735 -129.7400 61.6852
v -86.5015 -129.7400 61.0109
v -86.8560 -129.7400 59.9200
v -86.5015 -129.7400 58.8291
v -85.5735 -129.7400 58.1548
v -84.4265 -129.7400 58.1548
v -83.4985 -129.7400 58.8291
v -83.1440 -181.9400 59.9200
v -83.4985 -181.9400 61.0109
v -84.4265 -181.9400 61.6852
v -85.5735 -181.9400 61.6852
v -86.5015 -181.9400 61.0109
v -86.8560 -181.9400 59.9200
v -86.5015 -181.9400 58.8291
v -85.5735 -181.9400 58.1548
v -84.4265 -181.9400 58.1548
v -83.4985 -181.9400 58.8291
v -83.1440 -129.7400 59.9200
v -83.4985 -129.7400 61.0109
v -84.4265 -129.7400 61.6852
v -85.5735 -129.7400 61.6852
v -86.5015 -129.7400 61.0109
v -86.8560 -129.7400 59.9200
v -86.5015 -129.7400 58.8291
v -85.5735 -129.7400 58.1548
v -84.4265 -129.7400 58.1548
v -83.4985 -129.7400 58.8291
v 47.0200 -207.4600 39.6200
v 82.9800 -207.4600 39.6200
v 82.9800 -164.5400 39.6200
v 47.0200 -164.5400 39.6200
v 47.0200 -207.4600 52.3800
v 82.9800 -207.4600 52.3800
v 82.9800 -164.5400 52.3800
v 47.0200 -164.5400 52.3800
v 48.7600 -201.6600 51.2200
v 75.4400 -201.6600 51.2200
v 75.4400 -170.3400 51.2200
v 48.7600 -170.3400 51.2200
v 48.7600 -201.6600 61.6600
v 75.4400 -201.6600 61.6600
v 75.4400 -170.3400 61.6600
v 48.7600 -170.3400 61.6600
v 66.8560 -181.9400 59.9200
v 66.5015 -181.9400 61.0109
v 65.5735 -181.9400 61.6852
v 64.4265 -181.9400 61.6852
v 63.4985 -181.9400 61.0109
v 63.1440 -181.9400 59.9200
v 63.4985 -181.9400 58.8291
v 64.4265 -181.9400 58.1548
v 65.5735 -181.9400 58.1548
v 66.5015 -181.9400 58.8291
v 66.8560 -129.7400 59.9200
v 66.5015 -129.7400 61.0109
v 65.5735 -129.7400 61.6852
v 64.4265 -129.7400 61.6852
v 63.4985 -129.7400 61.0109
v 63.1440 -129.7400 59.9200
v 63.4985 -129.7400 58.8291
v 64.4265 -129.7400 58.1548
v 65.5735 -129.7400 58.1548
v 66.5015 -129.7400 58.8291
v 66.8560 -181.9400 59.9200
v 66.5015 -181.9400 61.0109
v 65.5735 -181.9400 61.6852
v 64.4265 -181.9400 61.6852
v 63.4985 -181.9400 61.0109
v 63.1440 -181.9400 59.9200
v 63.4985 -181.9400 58.8291
v 64.4265 -181.9400 58.1548
v 65.5735 -181.9400 58.1548
v 66.5015 -181.9400 58.8291
v 66.8560 -129.7400 59.9200
v 66.5015 -129.7400 61.0109
v 65.5735 -129.7400 61.6852
v 64.4265 -129.7400 61.6852
v 63.4985 -129.7400 61.0109
v 63.1440 -129.7400 59.9200
v 63.4985 -129.7400 58.8291
v 64.4265 -129.7400 58.1548
v 65.5735 -129.7400 58.1548
v 66.5015 -129.7400 58.8291
v 192.0200 -207.4600 39.6200
v 227.9800 -207.4600 39.6200
v 227.9800 -164.5400 39.6200
v 192.0200 -164.5400 39.6200
v 192.0200 -207.4600 52.3800
v 227.9800 -207.4600 52.3800
v 227.9800 -164.5400 52.3800
v 192.0200 -164.5400 52.3800
v 193.7600 -201.6600 51.2200
v 220.4400 -201.6600 51.2200
v 220.4400 -170.3400 51.2200
v 193.7600 -170.3400 51.2200
v 193.7600 -201.6600 61.6600
v 220.4400 -201.6600 61.6600
v 220.4400 -170.3400 61.6600
v 193.7600 -170.3400 61.6600
v 211.8560 -181.9400 59.9200
v 211.5015 -181.9400 61.0109
v 210.5735 -181.9400 61.6852
v 209.4265 -181.9400 61.6852
v 208.4985 -181.9400 61.0109
v 208.1440 -181.9400 59.9200
v 208.4985 -181.9400 58.8291
v 209.4265 -181.9400 58.1548
v 210.5735 -181.9400 58.1548
v 211.5015 -181.9400 58.8291
v 211.8560 -129.7400 59.9200
v 211.5015 -129.7400 61.0109
v 210.5735 -129.7400 61.6852
v 209.4265 -129.7400 61.6852
v 208.4985 -129.7400 61.0109
v 208.1440 -129.7400 59.9200
v 208.4985 -129.7400 58.8291
v 209.4265 -129.7400 58.1548
v 210.5735 -129.7400 58.1548
v 211.5015 -129.7400 58.8291
v 211.8560 -181.9400 59.9200
v 211.5015 -181.9400 61.0109
v 210.5735 -181.9400 61.6852
v 209.4265 -181.9400 61.6852
v 208.4985 -181.9400 61.0109
v 208.1440 -181.9400 59.9200
v 208.4985 -181.9400 58.8291
v 209.4265 -181.9400 58.1548
v 210.5735 -181.9400 58.1548
v 211.5015 -181.9400 58.8291
v 211.8560 -129.7400 59.9200
v 211.5015 -129.7400 61.0109
v 210.5735 -129.7400 61.6852
v 209.4265 -129.7400 61.6852
v 208.4985 -129.7400 61.0109
v 208.1440 -129.7400 59.9200
v 208.4985 -129.7400 58.8291
v 209.4265 -129.7400 58.1548
v 210.5735 -129.7400 58.1548
v 211.5015 -129.7400 58.8291
v -102.9800 164.5400 39.6200
v -67.0200 164.5400 39.6200
v -67.0200 207.4600 39.6200
v -102.9800 207.4600 39.6200
v -102.9800 164.5400 52.3800
v -67.0200 164.5400 52.3800
v -67.0200 207.4600 52.3800
v -102.9800 207.4600 52.3800
v -101.2400 170.3400 51.2200
v -74.5600 170.3400 51.2200
v -74.5600 201.6600 51.2200
v -101.2400 201.6600 51.2200
v -101.2400 170.3400 61.6600
v -74.5600 170.3400 61.6600
v -74.5600 201.6600 61.6600
v -101.2400 201.6600 61.6600
v -83.1440 190.0600 59.9200
v -83.4985 190.0600 61.0109
v -84.4265 190.0600 61.6852
v -85.5735 190.0600 61.6852
v -86.5015 190.0600 61.0109
v -86.8560 190.0600 59.9200
v -86.5015 190.0600 58.8291
v -85.5735 190.0600 58.1548
v -84.4265 190.0600 58.1548
v -83.4985 190.0600 58.8291
v -83.1440 242.2600 59.9200
v -83.4985 242.2600 61.0109
v -84.4265 242.2600 61.6852
v -85.5735 242.2600 61.6852
v -86.5015 242.2600 61.0109
v -86.8560 242.2600 59.9200
v -86.5015 242.2600 58.8291
v -85.5735 242.2600 58.1548
v -84.4265 242.2600 58.1548
v -83.4985 242.2600 58.8291
v -83.1440 190.0600 59.9200
v -83.4985 190.0600 61.0109
v -84.4265 190.0600 61.6852
v -85.5735 190.0600 61.6852
v -86.5015 190.0600 61.0109
v -86.8560 190.0600 59.9200
v -86.5015 190.0600 58.8291
v -85.5735 190.0600 58.1548
v -84.4265 190.0600 58.1548
v -83.4985 190.0600 58.8291
v -83.1440 242.2600 59.9200
v -83.4985 242.2600 61.0109
v -84.4265 242.2600 61.6852
v -85.5735 242.2600 61.6852
v -86.5015 242.2600 61.0109
v -86.8560 242.2600 59.9200
v -86.5015 242.2600 58.8291
v -85.5735 242.2600 58.1548
v -84.4265 242.2600 58.1548
v -83.4985 242.2600 58.8291
v 47.0200 164.5400 39.6200
v 82.9800 164.5400 39.6200
v 82.9800 207.4600 39.6200
v 47.0200 207.4600 39.6200
v 47.0200 164.5400 52.3800
v 82.9800 164.5400 52.3800
v 82.9800 207.4600 52.3800
v 47.0200 207.4600 52.3800
v 48.7600 170.3400 51.2200
v 75.4400 170.3400 51.2200
v 75.4400 201.6600 51.2200
v 48.7600 201.6600 51.2200
v 48.7600 170.3400 61.6600
v 75.4400 170.3400 61.6600
v 75.4400 201.6600 61.6600
v 48.7600 201.6600 61.6600
v 66.8560 190.0600 59.9200
v 66.5015 190.0600 61.0109
v 65.5735 190.0600 61.6852
v 64.4265 190.0600 61.6852
v 63.4985 190.0600 61.0109
v 63.1440 190.0600 59.9200
v 63.4985 190.0600 58.8291
v 64.4265 190.0600 58.1548
v 65.5735 190.0600 58.1548
v 66.5015 190.0600 58.8291
v 66.8560 242.2600 59.9200
v 66.5015 242.2600 61.0109
v 65.5735 242.2600 61.6852
v 64.4265 242.2600 61.6852
v 63.4985 242.2600 61.0109
v 63.1440 242.2600 59.9200
v 63.4985 242.2600 58.8291
v 64.4265 242.2600 58.1548
v 65.5735 242.2600 58.1548
v 66.5015 242.2600 58.8291
v 66.8560 190.0600 59.9200
v 66.5015 190.0600 61.0109
v 65.5735 190.0600 61.6852
v 64.4265 190.0600 61.6852
v 63.4985 190.0600 61.0109
v 63.1440 190.0600 59.9200
v 63.4985 190.0600 58.8291
v 64.4265 190.0600 58.1548
v 65.5735 190.0600 58.1548
v 66.5015 190.0600 58.8291
v 66.8560 242.2600 59.9200
v 66.5015 242.2600 61.0109
v 65.5735 242.2600 61.6852
v 64.4265 242.2600 61.6852
v 63.4985 242.2600 61.0109
v 63.1440 242.2600 59.9200
v 63.4985 242.2600 58.8291
v 64.4265 242.2600 58.1548
v 65.5735 242.2600 58.1548
v 66.5015 242.2600 58.8291
v 192.0200 164.5400 39.6200
v 227.9800 164.5400 39.6200
v 227.9800 207.4600 39.6200
v 192.0200 207.4600 39.6200
v 192.0200 164.5400 52.3800
v 227.9800 164.5400 52.3800
v 227.9800 207.4600 52.3800
v 192.0200 207.4600 52.3800
v 193.7600 170.3400 51.2200
v 220.4400 170.3400 51.2200
v 220.4400 201.6600 51.2200
v 193.7600 201.6600 51.2200
v 193.7600 170.3400 61.6600
v 220.4400 170.3400 61.6600
v 220.4400 201.6600 61.6600
v 193.7600 201.6600 61.6600
v 211.8560 190.0600 59.9200
v 211.5015 190.0600 61.0109
v 210.5735 190.0600 61.6852
v 209.4265 190.0600 61.6852
v 208.4985 190.0600 61.0109
v 208.1440 190.0600 59.9200
v 208.4985 190.0600 58.8291
v 209.4265 190.0600 58.1548
v 210.5735 190.0600 58.1548
v 211.5015 190.0600 58.8291
v 211.8560 242.2600 59.9200
v 211.5015 242.2600 61.0109
v 210.5735 242.2600 61.6852
v 209.4265 242.2600 61.6852
v 208.4985 242.2600 61.0109
v 208.1440 242.2600 59.9200
v 208.4985 242.2600 58.8291
v 209.4265 242.2600 58.1548
v 210.5735 242.2600 58.1548
v 211.5015 242.2600 58.8291
v 211.8560 190.0600 59.9200
v 211.5015 190.0600 61.0109
v 210.5735 190.0600 61.6852
v 209.4265 190.0600 61.6852
v 208.4985 190.0600 61.0109
v 208.1440 190.0600 59.9200
v 208.4985 190.0600 58.8291
v 209.4265 190.0600 58.1548
v 210.5735 190.0600 58.1548
v 211.5015 190.0600 58.8291
v 211.8560 242.2600 59.9200
v 211.5015 242.2600 61.0109
v 210.5735 242.2600 61.6852
v 209.4265 242.2600 61.6852
v 208.4985 242.2600 61.0109
v 208.1440 242.2600 59.9200
v 208.4985 242.2600 58.8291
v 209.4265 242.2600 58.1548
v 210.5735 242.2600 58.1548
v 211.5015 242.2600 58.8291
v -191.0000 -81.0000 108.0000
v -169.0000 -81.0000 108.0000
v -169.0000 -59.0000 108.0000
v -191.0000 -59.0000 108.0000
v -191.0000 -81.0000 116.0000
v -169.0000 -81.0000 116.0000
v -169.0000 -59.0000 116.0000
v -191.0000 -59.0000 116.0000
v -208.0000 -72.3000 118.0000
v -208.0000 -72.7979 119.2021
v -208.0000 -74.0000 119.7000
v -208.0000 -75.2021 119.2021
v -208.0000 -75.7000 118.0000
v -208.0000 -75.2021 116.7979
v -208.0000 -74.0000 116.3000
v -208.0000 -72.7979 116.7979
v -178.0000 -72.3000 118.0000
v -178.0000 -72.7979 119.2021
v -178.0000 -74.0000 119.7000
v -178.0000 -75.2021 119.2021
v -178.0000 -75.7000 118.0000
v -178.0000 -75.2021 116.7979
v -178.0000 -74.0000 116.3000
v -178.0000 -72.7979 116.7979
v -208.0000 -64.3000 118.0000
v -208.0000 -64.7979 119.2021
v -208.0000 -66.0000 119.7000
v -208.0000 -67.2021 119.2021
v -208.0000 -67.7000 118.0000
v -208.0000 -67.2021 116.7979
v -208.0000 -66.0000 116.3000
v -208.0000 -64.7979 116.7979
v -178.0000 -64.3000 118.0000
v -178.0000 -64.7979 119.2021
v -178.0000 -66.0000 119.7000
v -178.0000 -67.2021 119.2021
v -178.0000 -67.7000 118.0000
v -178.0000 -67.2021 116.7979
v -178.0000 -66.0000 116.3000
v -178.0000 -64.7979 116.7979
v -191.0000 59.0000 108.0000
v -169.0000 59.0000 108.0000
v -169.0000 81.0000 108.0000
v -191.0000 81.0000 108.0000
v -191.0000 59.0000 116.0000
v -169.0000 59.0000 116.0000
v -169.0000 81.0000 116.0000
v -191.0000 81.0000 116.0000
v -208.0000 67.7000 118.0000
v -208.0000 67.2021 119.2021
v -208.0000 66.0000 119.7000
v -208.0000 64.7979 119.2021
v -208.0000 64.3000 118.0000
v -208.0000 64.7979 116.7979
v -208.0000 66.0000 116.3000
v -208.0000 67.2021 116.7979
v -178.0000 67.7000 118.0000
v -178.0000 67.2021 119.2021
v -178.0000 66.0000 119.7000
v -178.0000 64.7979 119.2021
v -178.0000 64.3000 118.0000
v -178.0000 64.7979 116.7979
v -178.0000 66.0000 116.3000
v -178.0000 67.2021 116.7979
v -208.0000 75.7000 118.0000
v -208.0000 75.2021 119.2021
v -208.0000 74.0000 119.7000
v -208.0000 72.7979 119.2021
v -208.0000 72.3000 118.0000
v -208.0000 72.7979 116.7979
v -208.0000 74.0000 116.3000
v -208.0000 75.2021 116.7979
v -178.0000 75.7000 118.0000
v -178.0000 75.2021 119.2021
v -178.0000 74.0000 119.7000
v -178.0000 72.7979 119.2021
v -178.0000 72.3000 118.0000
v -178.0000 72.7979 116.7979
v -178.0000 74.0000 116.3000
v -178.0000 75.2021 116.7979
v -31.0000 -93.0000 114.0000
v -9.0000 -93.0000 114.0000
v -9.0000 -71.0000 114.0000
v -31.0000 -71.0000 114.0000
v -31.0000 -93.0000 122.0000
v -9.0000 -93.0000 122.0000
v -9.0000 -71.0000 122.0000
v -31.0000 -71.0000 122.0000
v -48.0000 -84.3000 124.0000
v -48.0000 -84.7979 125.2021
v -48.0000 -86.0000 125.7000
v -48.0000 -87.2021 125.2021
v -48.0000 -87.7000 124.0000
v -48.0000 -87.2021 122.7979
v -48.0000 -86.0000 122.3000
v -48.0000 -84.7979 122.7979
v -18.0000 -84.3000 124.0000
v -18.0000 -84.7979 125.2021
v -18.0000 -86.0000 125.7000
v -18.0000 -87.2021 125.2021
v -18.0000 -87.7000 124.0000
v -18.0000 -87.2021 122.7979
v -18.0000 -86.0000 122.3000
v -18.0000 -84.7979 122.7979
v -48.0000 -76.3000 124.0000
v -48.0000 -76.7979 125.2021
v -48.0000 -78.0000 125.7000
v -48.0000 -79.2021 125.2021
v -48.0000 -79.7000 124.0000
v -48.0000 -79.2021 122.7979
v -48.0000 -78.0000 122.3000
v -48.0000 -76.7979 122.7979
v -18.0000 -76.3000 124.0000
v -18.0000 -76.7979 125.2021
v -18.0000 -78.0000 125.7000
v -18.0000 -79.2021 125.2021
v -18.0000 -79.7000 124.0000
v -18.0000 -79.2021 122.7979
v -18.0000 -78.0000 122.3000
v -18.0000 -76.7979 122.7979
v -31.0000 71.0000 114.0000
v -9.0000 71.0000 114.0000
v -9.0000 93.0000 114.0000
v -31.0000 93.0000 114.0000
v -31.0000 71.0000 122.0000
v -9.0000 71.0000 122.0000
v -9.0000 93.0000 122.0000
v -31.0000 93.0000 122.0000
v -48.0000 79.7000 124.0000
v -48.0000 79.2021 125.2021
v -48.0000 78.0000 125.7000
v -48.0000 76.7979 125.2021
v -48.0000 76.3000 124.0000
v -48.0000 76.7979 122.7979
v -48.0000 78.0000 122.3000
v -48.0000 79.2021 122.7979
v -18.0000 79.7000 124.0000
v -18.0000 79.2021 125.2021
v -18.0000 78.0000 125.7000
v -18.0000 76.7979 125.2021
v -18.0000 76.3000 124.0000
v -18.0000 76.7979 122.7979
v -18.0000 78.0000 122.3000
v -18.0000 79.2021 122.7979
v -48.0000 87.7000 124.0000
v -48.0000 87.2021 125.2021
v -48.0000 86.0000 125.7000
v -48.0000 84.7979 125.2021
v -48.0000 84.3000 124.0000
v -48.0000 84.7979 122.7979
v -48.0000 86.0000 122.3000
v -48.0000 87.2021 122.7979
v -18.0000 87.7000 124.0000
v -18.0000 87.2021 125.2021
v -18.0000 86.0000 125.7000
v -18.0000 84.7979 125.2021
v -18.0000 84.3000 124.0000
v -18.0000 84.7979 122.7979
v -18.0000 86.0000 122.3000
v -18.0000 87.2021 122.7979
v 119.0000 -106.0000 116.0000
v 141.0000 -106.0000 116.0000
v 141.0000 -84.0000 116.0000
v 119.0000 -84.0000 116.0000
v 119.0000 -106.0000 124.0000
v 141.0000 -106.0000 124.0000
v 141.0000 -84.0000 124.0000
v 119.0000 -84.0000 124.0000
v 102.0000 -97.3000 126.0000
v 102.0000 -97.7979 127.2021
v 102.0000 -99.0000 127.7000
v 102.0000 -100.2021 127.2021
v 102.0000 -100.7000 126.0000
v 102.0000 -100.2021 124.7979
v 102.0000 -99.0000 124.3000
v 102.0000 -97.7979 124.7979
v 132.0000 -97.3000 126.0000
v 132.0000 -97.7979 127.2021
v 132.0000 -99.0000 127.7000
v 132.0000 -100.2021 127.2021
v 132.0000 -100.7000 126.0000
v 132.0000 -100.2021 124.7979
v 132.0000 -99.0000 124.3000
v 132.0000 -97.7979 124.7979
v 102.0000 -89.3000 126.0000
v 102.0000 -89.7979 127.2021
v 102.0000 -91.0000 127.7000
v 102.0000 -92.2021 127.2021
v 102.0000 -92.7000 126.0000
v 102.0000 -92.2021 124.7979
v 102.0000 -91.0000 124.3000
v 102.0000 -89.7979 124.7979
v 132.0000 -89.3000 126.0000
v 132.0000 -89.7979 127.2021
v 132.0000 -91.0000 127.7000
v 132.0000 -92.2021 127.2021
v 132.0000 -92.7000 126.0000
v 132.0000 -92.2021 124.7979
v 132.0000 -91.0000 124.3000
v 132.0000 -89.7979 124.7979
v 119.0000 84.0000 116.0000
v 141.0000 84.0000 116.0000
v 141.0000 106.0000 116.0000
v 119.0000 106.0000 116.0000
v 119.0000 84.0000 124.0000
v 141.0000 84.0000 124.0000
v 141.0000 106.0000 124.0000
v 119.0000 106.0000 124.0000
v 102.0000 92.7000 126.0000
v 102.0000 92.2021 127.2021
v 102.0000 91.0000 127.7000
v 102.0000 89.7979 127.2021
v 102.0000 89.3000 126.0000
v 102.0000 89.7979 124.7979
v 102.0000 91.0000 124.3000
v 102.0000 92.2021 124.7979
v 132.0000 92.7000 126.0000
v 132.0000 92.2021 127.2021
v 132.0000 91.0000 127.7000
v 132.0000 89.7979 127.2021
v 132.0000 89.3000 126.0000
v 132.0000 89.7979 124.7979
v 132.0000 91.0000 124.3000
v 132.0000 92.2021 124.7979
v 102.0000 100.7000 126.0000
v 102.0000 100.2021 127.2021
v 102.0000 99.0000 127.7000
v 102.0000 97.7979 127.2021
v 102.0000 97.3000 126.0000
v 102.0000 97.7979 124.7979
v 102.0000 99.0000 124.3000
v 102.0000 100.2021 124.7979
v 132.0000 100.7000 126.0000
v 132.0000 100.2021 127.2021
v 132.0000 99.0000 127.7000
v 132.0000 97.7979 127.2021
v 132.0000 97.3000 126.0000
v 132.0000 97.7979 124.7979
v 132.0000 99.0000 124.3000
v 132.0000 100.2021 124.7979
v 239.0000 -116.0000 100.0000
v 261.0000 -116.0000 100.0000
v 261.0000 -94.0000 100.0000
v 239.0000 -94.0000 100.0000
v 239.0000 -116.0000 108.0000
v 261.0000 -116.0000 108.0000
v 261.0000 -94.0000 108.0000
v 239.0000 -94.0000 108.0000
v 222.0000 -107.3000 110.0000
v 222.0000 -107.7979 111.2021
v 222.0000 -109.0000 111.7000
v 222.0000 -110.2021 111.2021
v 222.0000 -110.7000 110.0000
v 222.0000 -110.2021 108.7979
v 222.0000 -109.0000 108.3000
v 222.0000 -107.7979 108.7979
v 252.0000 -107.3000 110.0000
v 252.0000 -107.7979 111.2021
v 252.0000 -109.0000 111.7000
v 252.0000 -110.2021 111.2021
v 252.0000 -110.7000 110.0000
v 252.0000 -110.2021 108.7979
v 252.0000 -109.0000 108.3000
v 252.0000 -107.7979 108.7979
v 222.0000 -99.3000 110.0000
v 222.0000 -99.7979 111.2021
v 222.0000 -101.0000 111.7000
v 222.0000 -102.2021 111.2021
v 222.0000 -102.7000 110.0000
v 222.0000 -102.2021 108.7979
v 222.0000 -101.0000 108.3000
v 222.0000 -99.7979 108.7979
v 252.0000 -99.3000 110.0000
v 252.0000 -99.7979 111.2021
v 252.0000 -101.0000 111.7000
v 252.0000 -102.2021 111.2021
v 252.0000 -102.7000 110.0000
v 252.0000 -102.2021 108.7979
v 252.0000 -101.0000 108.3000
v 252.0000 -99.7979 108.7979
v 239.0000 94.0000 100.0000
v 261.0000 94.0000 100.0000
v 261.0000 116.0000 100.0000
v 239.0000 116.0000 100.0000
v 239.0000 94.0000 108.0000
v 261.0000 94.0000 108.0000
v 261.0000 116.0000 108.0000
v 239.0000 116.0000 108.0000
v 222.0000 102.7000 110.0000
v 222.0000 102.2021 111.2021
v 222.0000 101.0000 111.7000
v 222.0000 99.7979 111.2021
v 222.0000 99.3000 110.0000
v 222.0000 99.7979 108.7979
v 222.0000 101.0000 108.3000
v 222.0000 102.2021 108.7979
v 252.0000 102.7000 110.0000
v 252.0000 102.2021 111.2021
v 252.0000 101.0000 111.7000
v 252.0000 99.7979 111.2021
v 252.0000 99.3000 110.0000
v 252.0000 99.7979 108.7979
v 252.0000 101.0000 108.3000
v 252.0000 102.2021 108.7979
v 222.0000 110.7000 110.0000
v 222.0000 110.2021 111.2021
v 222.0000 109.0000 111.7000
v 222.0000 107.7979 111.2021
v 222.0000 107.3000 110.0000
v 222.0000 107.7979 108.7979
v 222.0000 109.0000 108.3000
v 222.0000 110.2021 108.7979
v 252.0000 110.7000 110.0000
v 252.0000 110.2021 111.2021
v 252.0000 109.0000 111.7000
v 252.0000 107.7979 111.2021
v 252.0000 107.3000 110.0000
v 252.0000 107.7979 108.7979
v 252.0000 109.0000 108.3000
v 252.0000 110.2021 108.7979
v 247.0000 -116.0000 106.0000
v 313.0000 -116.0000 106.0000
v 313.0000 -108.0000 106.0000
v 247.0000 -108.0000 106.0000
v 247.0000 -116.0000 154.0000
v 313.0000 -116.0000 154.0000
v 313.0000 -108.0000 154.0000
v 247.0000 -108.0000 154.0000
v 335.0000 -300.0000 -25.0000
v 445.0000 -300.0000 -25.0000
v 445.0000 -200.0000 -25.0000
v 335.0000 -200.0000 -25.0000
v 335.0000 -300.0000 -15.0000
v 445.0000 -300.0000 -15.0000
v 445.0000 -200.0000 -15.0000
v 335.0000 -200.0000 -15.0000
v 247.0000 108.0000 106.0000
v 313.0000 108.0000 106.0000
v 313.0000 116.0000 106.0000
v 247.0000 116.0000 106.0000
v 247.0000 108.0000 154.0000
v 313.0000 108.0000 154.0000
v 313.0000 116.0000 154.0000
v 247.0000 116.0000 154.0000
v 335.0000 200.0000 -25.0000
v 445.0000 200.0000 -25.0000
v 445.0000 300.0000 -25.0000
v 335.0000 300.0000 -25.0000
v 335.0000 200.0000 -15.0000
v 445.0000 200.0000 -15.0000
v 445.0000 300.0000 -15.0000
v 335.0000 300.0000 -15.0000
v -304.0000 -75.0000 88.0000
v -296.0000 -75.0000 88.0000
v -296.0000 75.0000 88.0000
v -304.0000 75.0000 88.0000
v -304.0000 -75.0000 94.0000
v -296.0000 -75.0000 94.0000
v -296.0000 75.0000 94.0000
v -304.0000 75.0000 94.0000
v -224.0000 -75.0000 88.0000
v -216.0000 -75.0000 88.0000
v -216.0000 75.0000 88.0000
v -224.0000 75.0000 88.0000
v -224.0000 -75.0000 94.0000
v -216.0000 -75.0000 94.0000
v -216.0000 75.0000 94.0000
v -224.0000 75.0000 94.0000
v -144.0000 -75.0000 88.0000
v -136.0000 -75.0000 88.0000
v -136.0000 75.0000 88.0000
v -144.0000 75.0000 88.0000
v -144.0000 -75.0000 94.0000
v -136.0000 -75.0000 94.0000
v -136.0000 75.0000 94.0000
v -144.0000 75.0000 94.0000
v -64.0000 -75.0000 88.0000
v -56.0000 -75.0000 88.0000
v -56.0000 75.0000 88.0000
v -64.0000 75.0000 88.0000
v -64.0000 -75.0000 94.0000
v -56.0000 -75.0000 94.0000
v -56.0000 75.0000 94.0000
v -64.0000 75.0000 94.0000
v 16.0000 -75.0000 88.0000
v 24.0000 -75.0000 88.0000
v 24.0000 75.0000 88.0000
v 16.0000 75.0000 88.0000
v 16.0000 -75.0000 94.0000
v 24.0000 -75.0000 94.0000
v 24.0000 75.0000 94.0000
v 16.0000 75.0000 94.0000
v 96.0000 -75.0000 88.0000
v 104.0000 -75.0000 88.0000
v 104.0000 75.0000 88.0000
v 96.0000 75.0000 88.0000
v 96.0000 -75.0000 94.0000
v 104.0000 -75.0000 94.0000
v 104.0000 75.0000 94.0000
v 96.0000 75.0000 94.0000
v 176.0000 -75.0000 88.0000
v 184.0000 -75.0000 88.0000
v 184.0000 75.0000 88.0000
v 176.0000 75.0000 88.0000
v 176.0000 -75.0000 94.0000
v 184.0000 -75.0000 94.0000
v 184.0000 75.0000 94.0000
v 176.0000 75.0000 94.0000
v 256.0000 -75.0000 88.0000
v 264.0000 -75.0000 88.0000
v 264.0000 75.0000 88.0000
v 256.0000 75.0000 88.0000
v 256.0000 -75.0000 94.0000
v 264.0000 -75.0000 94.0000
v 264.0000 75.0000 94.0000
v 256.0000 75.0000 94.0000
v 336.0000 -75.0000 88.0000
v 344.0000 -75.0000 88.0000
v 344.0000 75.0000 88.0000
v 336.0000 75.0000 88.0000
v 336.0000 -75.0000 94.0000
v 344.0000 -75.0000 94.0000
v 344.0000 75.0000 94.0000
v 336.0000 75.0000 94.0000
v -184.0000 -162.0000 -66.0000
v -176.0000 -162.0000 -66.0000
v -176.0000 -154.0000 -66.0000
v -184.0000 -154.0000 -66.0000
v -184.0000 -162.0000 16.0000
v -176.0000 -162.0000 16.0000
v -176.0000 -154.0000 16.0000
v -184.0000 -154.0000 16.0000
v -64.0000 -162.0000 -66.0000
v -56.0000 -162.0000 -66.0000
v -56.0000 -154.0000 -66.0000
v -64.0000 -154.0000 -66.0000
v -64.0000 -162.0000 16.0000
v -56.0000 -162.0000 16.0000
v -56.0000 -154.0000 16.0000
v -64.0000 -154.0000 16.0000
v 56.0000 -162.0000 -66.0000
v 64.0000 -162.0000 -66.0000
v 64.0000 -154.0000 -66.0000
v 56.0000 -154.0000 -66.0000
v 56.0000 -162.0000 16.0000
v 64.0000 -162.0000 16.0000
v 64.0000 -154.0000 16.0000
v 56.0000 -154.0000 16.0000
v 176.0000 -162.0000 -66.0000
v 184.0000 -162.0000 -66.0000
v 184.0000 -154.0000 -66.0000
v 176.0000 -154.0000 -66.0000
v 176.0000 -162.0000 16.0000
v 184.0000 -162.0000 16.0000
v 184.0000 -154.0000 16.0000
v 176.0000 -154.0000 16.0000
v 296.0000 -162.0000 -66.0000
v 304.0000 -162.0000 -66.0000
v 304.0000 -154.0000 -66.0000
v 296.0000 -154.0000 -66.0000
v 296.0000 -162.0000 16.0000
v 304.0000 -162.0000 16.0000
v 304.0000 -154.0000 16.0000
v 296.0000 -154.0000 16.0000
v -184.0000 154.0000 -66.0000
v -176.0000 154.0000 -66.0000
v -176.0000 162.0000 -66.0000
v -184.0000 162.0000 -66.0000
v -184.0000 154.0000 16.0000
v -176.0000 154.0000 16.0000
v -176.0000 162.0000 16.0000
v -184.0000 162.0000 16.0000
v -64.0000 154.0000 -66.0000
v -56.0000 154.0000 -66.0000
v -56.0000 162.0000 -66.0000
v -64.0000 162.0000 -66.0000
v -64.0000 154.0000 16.0000
v -56.0000 154.0000 16.0000
v -56.0000 162.0000 16.0000
v -64.0000 162.0000 16.0000
v 56.0000 154.0000 -66.0000
v 64.0000 154.0000 -66.0000
v 64.0000 162.0000 -66.0000
v 56.0000 162.0000 -66.0000
v 56.0000 154.0000 16.0000
v 64.0000 154.0000 16.0000
v 64.0000 162.0000 16.0000
v 56.0000 162.0000 16.0000
v 176.0000 154.0000 -66.0000
v 184.0000 154.0000 -66.0000
v 184.0000 162.0000 -66.0000
v 176.0000 162.0000 -66.0000
v 176.0000 154.0000 16.0000
v 184.0000 154.0000 16.0000
v 184.0000 162.0000 16.0000
v 176.0000 162.0000 16.0000
v 296.0000 154.0000 -66.0000
v 304.0000 154.0000 -66.0000
v 304.0000 162.0000 -66.0000
v 296.0000 162.0000 -66.0000
v 296.0000 154.0000 16.0000
v 304.0000 154.0000 16.0000
v 304.0000 162.0000 16.0000
v 296.0000 162.0000 16.0000
o Bow_Port
usemtl Hull
f 1 5 6 2
f 3 4 8 7
f 1 3 7 5
f 2 6 8 4
f 5 7 8 6
f 1 2 4 3
o Bow_Starboard
usemtl Hull
f 9 13 14 10
f 11 12 16 15
f 9 11 15 13
f 10 14 16 12
f 13 15 16 14
f 9 10 12 11
o Lower_Bow_Port
usemtl Armor
f 17 21 22 18
f 19 20 24 23
f 17 19 23 21
f 18 22 24 20
f 21 23 24 22
f 17 18 20 19
o Lower_Bow_Starboard
usemtl Armor
f 25 29 30 26
f 27 28 32 31
f 25 27 31 29
f 26 30 32 28
f 29 31 32 30
f 25 26 28 27
o Main_Hull_Forward
usemtl Hull
f 33 37 38 34
f 35 36 40 39
f 33 35 39 37
f 34 38 40 36
f 37 39 40 38
f 33 34 36 35
o Main_Hull_Mid
usemtl Hull
f 41 42 43 44
f 45 48 47 46
f 41 45 46 42
f 42 46 47 43
f 43 47 48 44
f 45 41 44 48
o Main_Hull_Aft
usemtl Hull
f 49 53 54 50
f 51 52 56 55
f 49 51 55 53
f 50 54 56 52
f 53 55 56 54
f 49 50 52 51
o Dorsal_Armor_Fwd
usemtl Armor
f 57 58 59 60
f 61 64 63 62
f 57 61 62 58
f 58 62 63 59
f 59 63 64 60
f 61 57 60 64
o Dorsal_Armor_Mid
usemtl Armor
f 65 66 67 68
f 69 72 71 70
f 65 69 70 66
f 66 70 71 67
f 67 71 72 68
f 69 65 68 72
o Ventral_Keel
usemtl Armor
f 73 74 75 76
f 77 80 79 78
f 73 77 78 74
f 74 78 79 75
f 75 79 80 76
f 77 73 76 80
o Sponson_-1_Fwd
usemtl Hull
f 81 82 83 84
f 85 88 87 86
f 81 85 86 82
f 82 86 87 83
f 83 87 88 84
f 85 81 84 88
o Sponson_-1_Aft
usemtl Armor
f 89 90 91 92
f 93 96 95 94
f 89 93 94 90
f 90 94 95 91
f 91 95 96 92
f 93 89 92 96
o SideArmor_-1
usemtl Armor
f 97 98 99 100
f 101 104 103 102
f 97 101 102 98
f 98 102 103 99
f 99 103 104 100
f 101 97 100 104
o Sponson_1_Fwd
usemtl Hull
f 105 106 107 108
f 109 112 111 110
f 105 109 110 106
f 106 110 111 107
f 107 111 112 108
f 109 105 108 112
o Sponson_1_Aft
usemtl Armor
f 113 114 115 116
f 117 120 119 118
f 113 117 118 114
f 114 118 119 115
f 115 119 120 116
f 117 113 116 120
o SideArmor_1
usemtl Armor
f 121 122 123 124
f 125 128 127 126
f 121 125 126 122
f 122 126 127 123
f 123 127 128 124
f 125 121 124 128
o Bridge_Base
usemtl Armor
f 129 130 131 132
f 133 136 135 134
f 129 133 134 130
f 130 134 135 131
f 131 135 136 132
f 133 129 132 136
o Bridge_Lower
usemtl Hull
f 137 138 139 140
f 141 144 143 142
f 137 141 142 138
f 138 142 143 139
f 139 143 144 140
f 141 137 140 144
o Bridge_Upper
usemtl Hull
f 145 146 147 148
f 149 152 151 150
f 145 149 150 146
f 146 150 151 147
f 147 151 152 148
f 149 145 148 152
o Bridge_Crown
usemtl Detail
f 153 154 155 156
f 157 160 159 158
f 153 157 158 154
f 154 158 159 155
f 155 159 160 156
f 157 153 156 160
o Main_Sensor_Mast
usemtl Detail
f 161 162 174 173
f 162 163 175 174
f 163 164 176 175
f 164 165 177 176
f 165 166 178 177
f 166 167 179 178
f 167 168 180 179
f 168 169 181 180
f 169 170 182 181
f 170 171 183 182
f 171 172 184 183
f 172 161 173 184
f 172 171 170 169 168 167 166 165 164 163 162 161
f 173 174 175 176 177 178 179 180 181 182 183 184
o Sensor_Array
usemtl Detail
f 185 186 187 188
f 189 192 191 190
f 185 189 190 186
f 186 190 191 187
f 187 191 192 188
f 189 185 188 192
o Engine_0
usemtl Engine
f 193 194 214 213
f 194 195 215 214
f 195 196 216 215
f 196 197 217 216
f 197 198 218 217
f 198 199 219 218
f 199 200 220 219
f 200 201 221 220
f 201 202 222 221
f 202 203 223 222
f 203 204 224 223
f 204 205 225 224
f 205 206 226 225
f 206 207 227 226
f 207 208 228 227
f 208 209 229 228
f 209 210 230 229
f 210 211 231 230
f 211 212 232 231
f 212 193 213 232
f 212 211 210 209 208 207 206 205 204 203 202 201 200 199 198 197 196 195 194 193
f 213 214 215 216 217 218 219 220 221 222 223 224 225 226 227 228 229 230 231 232
o EngineNozzle_0
usemtl Glow
f 233 234 254 253
f 234 235 255 254
f 235 236 256 255
f 236 237 257 256
f 237 238 258 257
f 238 239 259 258
f 239 240 260 259
f 240 241 261 260
f 241 242 262 261
f 242 243 263 262
f 243 244 264 263
f 244 245 265 264
f 245 246 266 265
f 246 247 267 266
f 247 248 268 267
f 248 249 269 268
f 249 250 270 269
f 250 251 271 270
f 251 252 272 271
f 252 233 253 272
f 252 251 250 249 248 247 246 245 244 243 242 241 240 239 238 237 236 235 234 233
f 253 254 255 256 257 258 259 260 261 262 263 264 265 266 267 268 269 270 271 272
o Engine_1
usemtl Engine
f 273 274 294 293
f 274 275 295 294
f 275 276 296 295
f 276 277 297 296
f 277 278 298 297
f 278 279 299 298
f 279 280 300 299
f 280 281 301 300
f 281 282 302 301
f 282 283 303 302
f 283 284 304 303
f 284 285 305 304
f 285 286 306 305
f 286 287 307 306
f 287 288 308 307
f 288 289 309 308
f 289 290 310 309
f 290 291 311 310
f 291 292 312 311
f 292 273 293 312
f 292 291 290 289 288 287 286 285 284 283 282 281 280 279 278 277 276 275 274 273
f 293 294 295 296 297 298 299 300 301 302 303 304 305 306 307 308 309 310 311 312
o EngineNozzle_1
usemtl Glow
f 313 314 334 333
f 314 315 335 334
f 315 316 336 335
f 316 317 337 336
f 317 318 338 337
f 318 319 339 338
f 319 320 340 339
f 320 321 341 340
f 321 322 342 341
f 322 323 343 342
f 323 324 344 343
f 324 325 345 344
f 325 326 346 345
f 326 327 347 346
f 327 328 348 347
f 328 329 349 348
f 329 330 350 349
f 330 331 351 350
f 331 332 352 351
f 332 313 333 352
f 332 331 330 329 328 327 326 325 324 323 322 321 320 319 318 317 316 315 314 313
f 333 334 335 336 337 338 339 340 341 342 343 344 345 346 347 348 349 350 351 352
o Engine_2
usemtl Engine
f 353 354 374 373
f 354 355 375 374
f 355 356 376 375
f 356 357 377 376
f 357 358 378 377
f 358 359 379 378
f 359 360 380 379
f 360 361 381 380
f 361 362 382 381
f 362 363 383 382
f 363 364 384 383
f 364 365 385 384
f 365 366 386 385
f 366 367 387 386
f 367 368 388 387
f 368 369 389 388
f 369 370 390 389
f 370 371 391 390
f 371 372 392 391
f 372 353 373 392
f 372 371 370 369 368 367 366 365 364 363 362 361 360 359 358 357 356 355 354 353
f 373 374 375 376 377 378 379 380 381 382 383 384 385 386 387 388 389 390 391 392
o EngineNozzle_2
usemtl Glow
f 393 394 414 413
f 394 395 415 414
f 395 396 416 415
f 396 397 417 416
f 397 398 418 417
f 398 399 419 418
f 399 400 420 419
f 400 401 421 420
f 401 402 422 421
f 402 403 423 422
f 403 404 424 423
f 404 405 425 424
f 405 406 426 425
f 406 407 427 426
f 407 408 428 427
f 408 409 429 428
f 409 410 430 429
f 410 411 431 430
f 411 412 432 431
f 412 393 413 432
f 412 411 410 409 408 407 406 405 404 403 402 401 400 399 398 397 396 395 394 393
f 413 414 415 416 417 418 419 420 421 422 423 424 425 426 427 428 429 430 431 432
o Engine_3
usemtl Engine
f 433 434 454 453
f 434 435 455 454
f 435 436 456 455
f 436 437 457 456
f 437 438 458 457
f 438 439 459 458
f 439 440 460 459
f 440 441 461 460
f 441 442 462 461
f 442 443 463 462
f 443 444 464 463
f 444 445 465 464
f 445 446 466 465
f 446 447 467 466
f 447 448 468 467
f 448 449 469 468
f 449 450 470 469
f 450 451 471 470
f 451 452 472 471
f 452 433 453 472
f 452 451 450 449 448 447 446 445 444 443 442 441 440 439 438 437 436 435 434 433
f 453 454 455 456 457 458 459 460 461 462 463 464 465 466 467 468 469 470 471 472
o EngineNozzle_3
usemtl Glow
f 473 474 494 493
f 474 475 495 494
f 475 476 496 495
f 476 477 497 496
f 477 478 498 497
f 478 479 499 498
f 479 480 500 499
f 480 481 501 500
f 481 482 502 501
f 482 483 503 502
f 483 484 504 503
f 484 485 505 504
f 485 486 506 505
f 486 487 507 506
f 487 488 508 507
f 488 489 509 508
f 489 490 510 509
f 490 491 511 510
f 491 492 512 511
f 492 473 493 512
f 492 491 490 489 488 487 486 485 484 483 482 481 480 479 478 477 476 475 474 473
f 493 494 495 496 497 498 499 500 501 502 503 504 505 506 507 508 509 510 511 512
o Aux_Engine
usemtl Engine
f 513 514 532 531
f 514 515 533 532
f 515 516 534 533
f 516 517 535 534
f 517 518 536 535
f 518 519 537 536
f 519 520 538 537
f 520 521 539 538
f 521 522 540 539
f 522 523 541 540
f 523 524 542 541
f 524 525 543 542
f 525 526 544 543
f 526 527 545 544
f 527 528 546 545
f 528 529 547 546
f 529 530 548 547
f 530 513 531 548
f 530 529 528 527 526 525 524 523 522 521 520 519 518 517 516 515 514 513
f 531 532 533 534 535 536 537 538 539 540 541 542 543 544 545 546 547 548
o Aux_Nozzle
usemtl Glow
f 549 550 568 567
f 550 551 569 568
f 551 552 570 569
f 552 553 571 570
f 553 554 572 571
f 554 555 573 572
f 555 556 574 573
f 556 557 575 574
f 557 558 576 575
f 558 559 577 576
f 559 560 578 577
f 560 561 579 578
f 561 562 580 579
f 562 563 581 580
f 563 564 582 581
f 564 565 583 582
f 565 566 584 583
f 566 549 567 584
f 566 565 564 563 562 561 560 559 558 557 556 555 554 553 552 551 550 549
f 567 568 569 570 571 572 573 574 575 576 577 578 579 580 581 582 583 584
o MainTurret_0_Base
usemtl Armor
f 585 586 587 588
f 589 592 591 590
f 585 589 590 586
f 586 590 591 587
f 587 591 592 588
f 589 585 588 592
o MainTurret_0_Cupola
usemtl Detail
f 593 594 595 596
f 597 600 599 598
f 593 597 598 594
f 594 598 599 595
f 595 599 600 596
f 597 593 596 600
o MainTurret_0_Barrel_-11
usemtl Gun
f 601 602 612 611
f 602 603 613 612
f 603 604 614 613
f 604 605 615 614
f 605 606 616 615
f 606 607 617 616
f 607 608 618 617
f 608 609 619 618
f 609 610 620 619
f 610 601 611 620
f 610 609 608 607 606 605 604 603 602 601
f 611 612 613 614 615 616 617 618 619 620
o MainTurret_0_Barrel_11
usemtl Gun
f 621 622 632 631
f 622 623 633 632
f 623 624 634 633
f 624 625 635 634
f 625 626 636 635
f 626 627 637 636
f 627 628 638 637
f 628 629 639 638
f 629 630 640 639
f 630 621 631 640
f 630 629 628 627 626 625 624 623 622 621
f 631 632 633 634 635 636 637 638 639 640
o MainTurret_1_Base
usemtl Armor
f 641 642 643 644
f 645 648 647 646
f 641 645 646 642
f 642 646 647 643
f 643 647 648 644
f 645 641 644 648
o MainTurret_1_Cupola
usemtl Detail
f 649 650 651 652
f 653 656 655 654
f 649 653 654 650
f 650 654 655 651
f 651 655 656 652
f 653 649 652 656
o MainTurret_1_Barrel_-11
usemtl Gun
f 657 658 668 667
f 658 659 669 668
f 659 660 670 669
f 660 661 671 670
f 661 662 672 671
f 662 663 673 672
f 663 664 674 673
f 664 665 675 674
f 665 666 676 675
f 666 657 667 676
f 666 665 664 663 662 661 660 659 658 657
f 667 668 669 670 671 672 673 674 675 676
o MainTurret_1_Barrel_11
usemtl Gun
f 677 678 688 687
f 678 679 689 688
f 679 680 690 689
f 680 681 691 690
f 681 682 692 691
f 682 683 693 692
f 683 684 694 693
f 684 685 695 694
f 685 686 696 695
f 686 677 687 696
f 686 685 684 683 682 681 680 679 678 677
f 687 688 689 690 691 692 693 694 695 696
o MainTurret_2_Base
usemtl Armor
f 697 698 699 700
f 701 704 703 702
f 697 701 702 698
f 698 702 703 699
f 699 703 704 700
f 701 697 700 704
o MainTurret_2_Cupola
usemtl Detail
f 705 706 707 708
f 709 712 711 710
f 705 709 710 706
f 706 710 711 707
f 707 711 712 708
f 709 705 708 712
o MainTurret_2_Barrel_-11
usemtl Gun
f 713 714 724 723
f 714 715 725 724
f 715 716 726 725
f 716 717 727 726
f 717 718 728 727
f 718 719 729 728
f 719 720 730 729
f 720 721 731 730
f 721 722 732 731
f 722 713 723 732
f 722 721 720 719 718 717 716 715 714 713
f 723 724 725 726 727 728 729 730 731 732
o MainTurret_2_Barrel_11
usemtl Gun
f 733 734 744 743
f 734 735 745 744
f 735 736 746 745
f 736 737 747 746
f 737 738 748 747
f 738 739 749 748
f 739 740 750 749
f 740 741 751 750
f 741 742 752 751
f 742 733 743 752
f 742 741 740 739 738 737 736 735 734 733
f 743 744 745 746 747 748 749 750 751 752
o Secondary_-1_0_Base
usemtl Armor
f 753 754 755 756
f 757 760 759 758
f 753 757 758 754
f 754 758 759 755
f 755 759 760 756
f 757 753 756 760
o Secondary_-1_0_Cupola
usemtl Detail
f 761 762 763 764
f 765 768 767 766
f 761 765 766 762
f 762 766 767 763
f 763 767 768 764
f 765 761 764 768
o Secondary_-1_0_Barrel_-11
usemtl Gun
f 769 770 780 779
f 770 771 781 780
f 771 772 782 781
f 772 773 783 782
f 773 774 784 783
f 774 775 785 784
f 775 776 786 785
f 776 777 787 786
f 777 778 788 787
f 778 769 779 788
f 778 777 776 775 774 773 772 771 770 769
f 779 780 781 782 783 784 785 786 787 788
o Secondary_-1_0_Barrel_11
usemtl Gun
f 789 790 800 799
f 790 791 801 800
f 791 792 802 801
f 792 793 803 802
f 793 794 804 803
f 794 795 805 804
f 795 796 806 805
f 796 797 807 806
f 797 798 808 807
f 798 789 799 808
f 798 797 796 795 794 793 792 791 790 789
f 799 800 801 802 803 804 805 806 807 808
o Secondary_-1_1_Base
usemtl Armor
f 809 810 811 812
f 813 816 815 814
f 809 813 814 810
f 810 814 815 811
f 811 815 816 812
f 813 809 812 816
o Secondary_-1_1_Cupola
usemtl Detail
f 817 818 819 820
f 821 824 823 822
f 817 821 822 818
f 818 822 823 819
f 819 823 824 820
f 821 817 820 824
o Secondary_-1_1_Barrel_-11
usemtl Gun
f 825 826 836 835
f 826 827 837 836
f 827 828 838 837
f 828 829 839 838
f 829 830 840 839
f 830 831 841 840
f 831 832 842 841
f 832 833 843 842
f 833 834 844 843
f 834 825 835 844
f 834 833 832 831 830 829 828 827 826 825
f 835 836 837 838 839 840 841 842 843 844
o Secondary_-1_1_Barrel_11
usemtl Gun
f 845 846 856 855
f 846 847 857 856
f 847 848 858 857
f 848 849 859 858
f 849 850 860 859
f 850 851 861 860
f 851 852 862 861
f 852 853 863 862
f 853 854 864 863
f 854 845 855 864
f 854 853 852 851 850 849 848 847 846 845
f 855 856 857 858 859 860 861 862 863 864
o Secondary_-1_2_Base
usemtl Armor
f 865 866 867 868
f 869 872 871 870
f 865 869 870 866
f 866 870 871 867
f 867 871 872 868
f 869 865 868 872
o Secondary_-1_2_Cupola
usemtl Detail
f 873 874 875 876
f 877 880 879 878
f 873 877 878 874
f 874 878 879 875
f 875 879 880 876
f 877 873 876 880
o Secondary_-1_2_Barrel_-11
usemtl Gun
f 881 882 892 891
f 882 883 893 892
f 883 884 894 893
f 884 885 895 894
f 885 886 896 895
f 886 887 897 896
f 887 888 898 897
f 888 889 899 898
f 889 890 900 899
f 890 881 891 900
f 890 889 888 887 886 885 884 883 882 881
f 891 892 893 894 895 896 897 898 899 900
o Secondary_-1_2_Barrel_11
usemtl Gun
f 901 902 912 911
f 902 903 913 912
f 903 904 914 913
f 904 905 915 914
f 905 906 916 915
f 906 907 917 916
f 907 908 918 917
f 908 909 919 918
f 909 910 920 919
f 910 901 911 920
f 910 909 908 907 906 905 904 903 902 901
f 911 912 913 914 915 916 917 918 919 920
o Secondary_1_0_Base
usemtl Armor
f 921 922 923 924
f 925 928 927 926
f 921 925 926 922
f 922 926 927 923
f 923 927 928 924
f 925 921 924 928
o Secondary_1_0_Cupola
usemtl Detail
f 929 930 931 932
f 933 936 935 934
f 929 933 934 930
f 930 934 935 931
f 931 935 936 932
f 933 929 932 936
o Secondary_1_0_Barrel_-11
usemtl Gun
f 937 938 948 947
f 938 939 949 948
f 939 940 950 949
f 940 941 951 950
f 941 942 952 951
f 942 943 953 952
f 943 944 954 953
f 944 945 955 954
f 945 946 956 955
f 946 937 947 956
f 946 945 944 943 942 941 940 939 938 937
f 947 948 949 950 951 952 953 954 955 956
o Secondary_1_0_Barrel_11
usemtl Gun
f 957 958 968 967
f 958 959 969 968
f 959 960 970 969
f 960 961 971 970
f 961 962 972 971
f 962 963 973 972
f 963 964 974 973
f 964 965 975 974
f 965 966 976 975
f 966 957 967 976
f 966 965 964 963 962 961 960 959 958 957
f 967 968 969 970 971 972 973 974 975 976
o Secondary_1_1_Base
usemtl Armor
f 977 978 979 980
f 981 984 983 982
f 977 981 982 978
f 978 982 983 979
f 979 983 984 980
f 981 977 980 984
o Secondary_1_1_Cupola
usemtl Detail
f 985 986 987 988
f 989 992 991 990
f 985 989 990 986
f 986 990 991 987
f 987 991 992 988
f 989 985 988 992
o Secondary_1_1_Barrel_-11
usemtl Gun
f 993 994 1004 1003
f 994 995 1005 1004
f 995 996 1006 1005
f 996 997 1007 1006
f 997 998 1008 1007
f 998 999 1009 1008
f 999 1000 1010 1009
f 1000 1001 1011 1010
f 1001 1002 1012 1011
f 1002 993 1003 1012
f 1002 1001 1000 999 998 997 996 995 994 993
f 1003 1004 1005 1006 1007 1008 1009 1010 1011 1012
o Secondary_1_1_Barrel_11
usemtl Gun
f 1013 1014 1024 1023
f 1014 1015 1025 1024
f 1015 1016 1026 1025
f 1016 1017 1027 1026
f 1017 1018 1028 1027
f 1018 1019 1029 1028
f 1019 1020 1030 1029
f 1020 1021 1031 1030
f 1021 1022 1032 1031
f 1022 1013 1023 1032
f 1022 1021 1020 1019 1018 1017 1016 1015 1014 1013
f 1023 1024 1025 1026 1027 1028 1029 1030 1031 1032
o Secondary_1_2_Base
usemtl Armor
f 1033 1034 1035 1036
f 1037 1040 1039 1038
f 1033 1037 1038 1034
f 1034 1038 1039 1035
f 1035 1039 1040 1036
f 1037 1033 1036 1040
o Secondary_1_2_Cupola
usemtl Detail
f 1041 1042 1043 1044
f 1045 1048 1047 1046
f 1041 1045 1046 1042
f 1042 1046 1047 1043
f 1043 1047 1048 1044
f 1045 1041 1044 1048
o Secondary_1_2_Barrel_-11
usemtl Gun
f 1049 1050 1060 1059
f 1050 1051 1061 1060
f 1051 1052 1062 1061
f 1052 1053 1063 1062
f 1053 1054 1064 1063
f 1054 1055 1065 1064
f 1055 1056 1066 1065
f 1056 1057 1067 1066
f 1057 1058 1068 1067
f 1058 1049 1059 1068
f 1058 1057 1056 1055 1054 1053 1052 1051 1050 1049
f 1059 1060 1061 1062 1063 1064 1065 1066 1067 1068
o Secondary_1_2_Barrel_11
usemtl Gun
f 1069 1070 1080 1079
f 1070 1071 1081 1080
f 1071 1072 1082 1081
f 1072 1073 1083 1082
f 1073 1074 1084 1083
f 1074 1075 1085 1084
f 1075 1076 1086 1085
f 1076 1077 1087 1086
f 1077 1078 1088 1087
f 1078 1069 1079 1088
f 1078 1077 1076 1075 1074 1073 1072 1071 1070 1069
f 1079 1080 1081 1082 1083 1084 1085 1086 1087 1088
o AA_0_base
usemtl Detail
f 1089 1090 1091 1092
f 1093 1096 1095 1094
f 1089 1093 1094 1090
f 1090 1094 1095 1091
f 1091 1095 1096 1092
f 1093 1089 1092 1096
o AA_0_gun_-4
usemtl Gun
f 1097 1098 1106 1105
f 1098 1099 1107 1106
f 1099 1100 1108 1107
f 1100 1101 1109 1108
f 1101 1102 1110 1109
f 1102 1103 1111 1110
f 1103 1104 1112 1111
f 1104 1097 1105 1112
f 1104 1103 1102 1101 1100 1099 1098 1097
f 1105 1106 1107 1108 1109 1110 1111 1112
o AA_0_gun_4
usemtl Gun
f 1113 1114 1122 1121
f 1114 1115 1123 1122
f 1115 1116 1124 1123
f 1116 1117 1125 1124
f 1117 1118 1126 1125
f 1118 1119 1127 1126
f 1119 1120 1128 1127
f 1120 1113 1121 1128
f 1120 1119 1118 1117 1116 1115 1114 1113
f 1121 1122 1123 1124 1125 1126 1127 1128
o AA_1_base
usemtl Detail
f 1129 1130 1131 1132
f 1133 1136 1135 1134
f 1129 1133 1134 1130
f 1130 1134 1135 1131
f 1131 1135 1136 1132
f 1133 1129 1132 1136
o AA_1_gun_-4
usemtl Gun
f 1137 1138 1146 1145
f 1138 1139 1147 1146
f 1139 1140 1148 1147
f 1140 1141 1149 1148
f 1141 1142 1150 1149
f 1142 1143 1151 1150
f 1143 1144 1152 1151
f 1144 1137 1145 1152
f 1144 1143 1142 1141 1140 1139 1138 1137
f 1145 1146 1147 1148 1149 1150 1151 1152
o AA_1_gun_4
usemtl Gun
f 1153 1154 1162 1161
f 1154 1155 1163 1162
f 1155 1156 1164 1163
f 1156 1157 1165 1164
f 1157 1158 1166 1165
f 1158 1159 1167 1166
f 1159 1160 1168 1167
f 1160 1153 1161 1168
f 1160 1159 1158 1157 1156 1155 1154 1153
f 1161 1162 1163 1164 1165 1166 1167 1168
o AA_2_base
usemtl Detail
f 1169 1170 1171 1172
f 1173 1176 1175 1174
f 1169 1173 1174 1170
f 1170 1174 1175 1171
f 1171 1175 1176 1172
f 1173 1169 1172 1176
o AA_2_gun_-4
usemtl Gun
f 1177 1178 1186 1185
f 1178 1179 1187 1186
f 1179 1180 1188 1187
f 1180 1181 1189 1188
f 1181 1182 1190 1189
f 1182 1183 1191 1190
f 1183 1184 1192 1191
f 1184 1177 1185 1192
f 1184 1183 1182 1181 1180 1179 1178 1177
f 1185 1186 1187 1188 1189 1190 1191 1192
o AA_2_gun_4
usemtl Gun
f 1193 1194 1202 1201
f 1194 1195 1203 1202
f 1195 1196 1204 1203
f 1196 1197 1205 1204
f 1197 1198 1206 1205
f 1198 1199 1207 1206
f 1199 1200 1208 1207
f 1200 1193 1201 1208
f 1200 1199 1198 1197 1196 1195 1194 1193
f 1201 1202 1203 1204 1205 1206 1207 1208
o AA_3_base
usemtl Detail
f 1209 1210 1211 1212
f 1213 1216 1215 1214
f 1209 1213 1214 1210
f 1210 1214 1215 1211
f 1211 1215 1216 1212
f 1213 1209 1212 1216
o AA_3_gun_-4
usemtl Gun
f 1217 1218 1226 1225
f 1218 1219 1227 1226
f 1219 1220 1228 1227
f 1220 1221 1229 1228
f 1221 1222 1230 1229
f 1222 1223 1231 1230
f 1223 1224 1232 1231
f 1224 1217 1225 1232
f 1224 1223 1222 1221 1220 1219 1218 1217
f 1225 1226 1227 1228 1229 1230 1231 1232
o AA_3_gun_4
usemtl Gun
f 1233 1234 1242 1241
f 1234 1235 1243 1242
f 1235 1236 1244 1243
f 1236 1237 1245 1244
f 1237 1238 1246 1245
f 1238 1239 1247 1246
f 1239 1240 1248 1247
f 1240 1233 1241 1248
f 1240 1239 1238 1237 1236 1235 1234 1233
f 1241 1242 1243 1244 1245 1246 1247 1248
o AA_4_base
usemtl Detail
f 1249 1250 1251 1252
f 1253 1256 1255 1254
f 1249 1253 1254 1250
f 1250 1254 1255 1251
f 1251 1255 1256 1252
f 1253 1249 1252 1256
o AA_4_gun_-4
usemtl Gun
f 1257 1258 1266 1265
f 1258 1259 1267 1266
f 1259 1260 1268 1267
f 1260 1261 1269 1268
f 1261 1262 1270 1269
f 1262 1263 1271 1270
f 1263 1264 1272 1271
f 1264 1257 1265 1272
f 1264 1263 1262 1261 1260 1259 1258 1257
f 1265 1266 1267 1268 1269 1270 1271 1272
o AA_4_gun_4
usemtl Gun
f 1273 1274 1282 1281
f 1274 1275 1283 1282
f 1275 1276 1284 1283
f 1276 1277 1285 1284
f 1277 1278 1286 1285
f 1278 1279 1287 1286
f 1279 1280 1288 1287
f 1280 1273 1281 1288
f 1280 1279 1278 1277 1276 1275 1274 1273
f 1281 1282 1283 1284 1285 1286 1287 1288
o AA_5_base
usemtl Detail
f 1289 1290 1291 1292
f 1293 1296 1295 1294
f 1289 1293 1294 1290
f 1290 1294 1295 1291
f 1291 1295 1296 1292
f 1293 1289 1292 1296
o AA_5_gun_-4
usemtl Gun
f 1297 1298 1306 1305
f 1298 1299 1307 1306
f 1299 1300 1308 1307
f 1300 1301 1309 1308
f 1301 1302 1310 1309
f 1302 1303 1311 1310
f 1303 1304 1312 1311
f 1304 1297 1305 1312
f 1304 1303 1302 1301 1300 1299 1298 1297
f 1305 1306 1307 1308 1309 1310 1311 1312
o AA_5_gun_4
usemtl Gun
f 1313 1314 1322 1321
f 1314 1315 1323 1322
f 1315 1316 1324 1323
f 1316 1317 1325 1324
f 1317 1318 1326 1325
f 1318 1319 1327 1326
f 1319 1320 1328 1327
f 1320 1313 1321 1328
f 1320 1319 1318 1317 1316 1315 1314 1313
f 1321 1322 1323 1324 1325 1326 1327 1328
o AA_6_base
usemtl Detail
f 1329 1330 1331 1332
f 1333 1336 1335 1334
f 1329 1333 1334 1330
f 1330 1334 1335 1331
f 1331 1335 1336 1332
f 1333 1329 1332 1336
o AA_6_gun_-4
usemtl Gun
f 1337 1338 1346 1345
f 1338 1339 1347 1346
f 1339 1340 1348 1347
f 1340 1341 1349 1348
f 1341 1342 1350 1349
f 1342 1343 1351 1350
f 1343 1344 1352 1351
f 1344 1337 1345 1352
f 1344 1343 1342 1341 1340 1339 1338 1337
f 1345 1346 1347 1348 1349 1350 1351 1352
o AA_6_gun_4
usemtl Gun
f 1353 1354 1362 1361
f 1354 1355 1363 1362
f 1355 1356 1364 1363
f 1356 1357 1365 1364
f 1357 1358 1366 1365
f 1358 1359 1367 1366
f 1359 1360 1368 1367
f 1360 1353 1361 1368
f 1360 1359 1358 1357 1356 1355 1354 1353
f 1361 1362 1363 1364 1365 1366 1367 1368
o AA_7_base
usemtl Detail
f 1369 1370 1371 1372
f 1373 1376 1375 1374
f 1369 1373 1374 1370
f 1370 1374 1375 1371
f 1371 1375 1376 1372
f 1373 1369 1372 1376
o AA_7_gun_-4
usemtl Gun
f 1377 1378 1386 1385
f 1378 1379 1387 1386
f 1379 1380 1388 1387
f 1380 1381 1389 1388
f 1381 1382 1390 1389
f 1382 1383 1391 1390
f 1383 1384 1392 1391
f 1384 1377 1385 1392
f 1384 1383 1382 1381 1380 1379 1378 1377
f 1385 1386 1387 1388 1389 1390 1391 1392
o AA_7_gun_4
usemtl Gun
f 1393 1394 1402 1401
f 1394 1395 1403 1402
f 1395 1396 1404 1403
f 1396 1397 1405 1404
f 1397 1398 1406 1405
f 1398 1399 1407 1406
f 1399 1400 1408 1407
f 1400 1393 1401 1408
f 1400 1399 1398 1397 1396 1395 1394 1393
f 1401 1402 1403 1404 1405 1406 1407 1408
o SensorFin_-1
usemtl Detail
f 1409 1410 1411 1412
f 1413 1416 1415 1414
f 1409 1413 1414 1410
f 1410 1414 1415 1411
f 1411 1415 1416 1412
f 1413 1409 1412 1416
o AftFin_-1
usemtl Armor
f 1417 1418 1419 1420
f 1421 1424 1423 1422
f 1417 1421 1422 1418
f 1418 1422 1423 1419
f 1419 1423 1424 1420
f 1421 1417 1420 1424
o SensorFin_1
usemtl Detail
f 1425 1426 1427 1428
f 1429 1432 1431 1430
f 1425 1429 1430 1426
f 1426 1430 1431 1427
f 1427 1431 1432 1428
f 1429 1425 1428 1432
o AftFin_1
usemtl Armor
f 1433 1434 1435 1436
f 1437 1440 1439 1438
f 1433 1437 1438 1434
f 1434 1438 1439 1435
f 1435 1439 1440 1436
f 1437 1433 1436 1440
o DorsalPanel_-300
usemtl Panel
f 1441 1442 1443 1444
f 1445 1448 1447 1446
f 1441 1445 1446 1442
f 1442 1446 1447 1443
f 1443 1447 1448 1444
f 1445 1441 1444 1448
o DorsalPanel_-220
usemtl Panel
f 1449 1450 1451 1452
f 1453 1456 1455 1454
f 1449 1453 1454 1450
f 1450 1454 1455 1451
f 1451 1455 1456 1452
f 1453 1449 1452 1456
o DorsalPanel_-140
usemtl Panel
f 1457 1458 1459 1460
f 1461 1464 1463 1462
f 1457 1461 1462 1458
f 1458 1462 1463 1459
f 1459 1463 1464 1460
f 1461 1457 1460 1464
o DorsalPanel_-60
usemtl Panel
f 1465 1466 1467 1468
f 1469 1472 1471 1470
f 1465 1469 1470 1466
f 1466 1470 1471 1467
f 1467 1471 1472 1468
f 1469 1465 1468 1472
o DorsalPanel_20
usemtl Panel
f 1473 1474 1475 1476
f 1477 1480 1479 1478
f 1473 1477 1478 1474
f 1474 1478 1479 1475
f 1475 1479 1480 1476
f 1477 1473 1476 1480
o DorsalPanel_100
usemtl Panel
f 1481 1482 1483 1484
f 1485 1488 1487 1486
f 1481 1485 1486 1482
f 1482 1486 1487 1483
f 1483 1487 1488 1484
f 1485 1481 1484 1488
o DorsalPanel_180
usemtl Panel
f 1489 1490 1491 1492
f 1493 1496 1495 1494
f 1489 1493 1494 1490
f 1490 1494 1495 1491
f 1491 1495 1496 1492
f 1493 1489 1492 1496
o DorsalPanel_260
usemtl Panel
f 1497 1498 1499 1500
f 1501 1504 1503 1502
f 1497 1501 1502 1498
f 1498 1502 1503 1499
f 1499 1503 1504 1500
f 1501 1497 1500 1504
o DorsalPanel_340
usemtl Panel
f 1505 1506 1507 1508
f 1509 1512 1511 1510
f 1505 1509 1510 1506
f 1506 1510 1511 1507
f 1507 1511 1512 1508
f 1509 1505 1508 1512
o SidePanel_-1_-180
usemtl Panel
f 1513 1514 1515 1516
f 1517 1520 1519 1518
f 1513 1517 1518 1514
f 1514 1518 1519 1515
f 1515 1519 1520 1516
f 1517 1513 1516 1520
o SidePanel_-1_-60
usemtl Panel
f 1521 1522 1523 1524
f 1525 1528 1527 1526
f 1521 1525 1526 1522
f 1522 1526 1527 1523
f 1523 1527 1528 1524
f 1525 1521 1524 1528
o SidePanel_-1_60
usemtl Panel
f 1529 1530 1531 1532
f 1533 1536 1535 1534
f 1529 1533 1534 1530
f 1530 1534 1535 1531
f 1531 1535 1536 1532
f 1533 1529 1532 1536
o SidePanel_-1_180
usemtl Panel
f 1537 1538 1539 1540
f 1541 1544 1543 1542
f 1537 1541 1542 1538
f 1538 1542 1543 1539
f 1539 1543 1544 1540
f 1541 1537 1540 1544
o SidePanel_-1_300
usemtl Panel
f 1545 1546 1547 1548
f 1549 1552 1551 1550
f 1545 1549 1550 1546
f 1546 1550 1551 1547
f 1547 1551 1552 1548
f 1549 1545 1548 1552
o SidePanel_1_-180
usemtl Panel
f 1553 1554 1555 1556
f 1557 1560 1559 1558
f 1553 1557 1558 1554
f 1554 1558 1559 1555
f 1555 1559 1560 1556
f 1557 1553 1556 1560
o SidePanel_1_-60
usemtl Panel
f 1561 1562 1563 1564
f 1565 1568 1567 1566
f 1561 1565 1566 1562
f 1562 1566 1567 1563
f 1563 1567 1568 1564
f 1565 1561 1564 1568
o SidePanel_1_60
usemtl Panel
f 1569 1570 1571 1572
f 1573 1576 1575 1574
f 1569 1573 1574 1570
f 1570 1574 1575 1571
f 1571 1575 1576 1572
f 1573 1569 1572 1576
o SidePanel_1_180
usemtl Panel
f 1577 1578 1579 1580
f 1581 1584 1583 1582
f 1577 1581 1582 1578
f 1578 1582 1583 1579
f 1579 1583 1584 1580
f 1581 1577 1580 1584
o SidePanel_1_300
usemtl Panel
f 1585 1586 1587 1588
f 1589 1592 1591 1590
f 1585 1589 1590 1586
f 1586 1590 1591 1587
f 1587 1591 1592 1588
f 1589 1585 1588 1592